<?xml version="1.0" encoding="UTF-8"?>
<svg width="147px" height="147px" viewBox="0 0 147 147" version="1.1" xmlns="http://www.w3.org/2000/svg" xmlns:xlink="http://www.w3.org/1999/xlink">
    <!-- Generator: Sketch 60 (88103) - https://sketch.com -->
    <title>1</title>
    <desc>Created with Sketch.</desc>
    <g id="Wireframes" stroke="none" stroke-width="1" fill="none" fill-rule="evenodd">
        <g id="Home-page" transform="translate(-7.000000, -198.000000)">
            <g id="1" transform="translate(7.000000, 198.000000)">
                <circle id="Oval" fill="#52EBA0" cx="73.5" cy="73.5" r="73.5"></circle>
                <path d="M100.624118,63.1207689 C101.98215,64.4788015 101.98215,66.6801707 100.624118,68.0382033 L92.5106987,76.1516223 L87.5550099,91.0239054 C87.252452,91.9315789 86.586477,92.6758017 85.7187967,93.0774733 C84.8511165,93.4791449 83.8547622,93.5069664 82.9627382,93.1522434 L76.6646662,90.6326668 L71.3212165,97.3115443 C70.4100653,98.4487445 68.886843,98.8973648 67.5062055,98.4383115 L58.5894432,95.466637 L51.2671956,99.8606811 C50.7072897,100.196277 50.0900021,100.35625 49.4814087,100.35625 C48.2989988,100.35625 47.1478879,99.754612 46.4958236,98.6678381 C45.5081635,97.0211583 46.0419868,94.885865 47.6886666,93.8964661 L56.3828575,88.6799515 C57.2540155,88.1583001 58.3112291,88.0435367 59.2710678,88.363483 L67.4053529,91.0743317 L72.8461776,84.2737355 C73.8007997,83.075676 75.4248746,82.6513995 76.8524608,83.2165219 L82.1211405,85.3239938 L86.1726335,73.1747313 C86.3430396,72.6617741 86.6299479,72.1957654 87.0124923,71.8149599 L95.7066833,63.1207689 C97.0647159,61.7627363 99.2660851,61.7627363 100.624118,63.1207689 Z M73.7425556,47 C74.5719814,47 75.5613665,47.730312 75.5613665,48.7231887 C75.5613665,49.4517619 75.3022796,50.0203619 74.7806281,50.8011003 L66.4481155,63.6650253 L71.4472753,63.6650253 C72.6470736,63.6650253 73.5843074,64.2388419 73.5843074,65.3882139 C73.5843074,66.5323694 72.6470736,67.1009695 71.4472753,67.1009695 L64.3162998,67.1009695 L64.3162998,70.7977395 L71.4472753,70.7977395 C72.6470736,70.7977395 73.5843074,71.3750338 73.5843074,72.5191893 C73.5843074,73.6633449 72.6470736,74.2371615 71.4472753,74.2371615 L64.3162998,74.2371615 L64.3162998,82.2549444 C64.3162998,83.7642559 63.3790661,84.7067062 62.0210334,84.7067062 C60.6682173,84.7067062 59.7309835,83.7642559 59.7309835,82.2549444 L59.7309835,74.2371615 L52.5930597,74.2371615 C51.3984779,74.2371615 50.4612441,73.6633449 50.4612441,72.5191893 C50.4612441,71.3750338 51.3984779,70.7977395 52.5930597,70.7977395 L59.7309835,70.7977395 L59.7309835,67.1009695 L52.5930597,67.1009695 C51.3984779,67.1009695 50.4612441,66.5323694 50.4612441,65.3882139 C50.4612441,64.2388419 51.3984779,63.6650253 52.5930597,63.6650253 L57.5939514,63.6650253 L49.2614457,50.8011003 C48.7450108,50.0203619 48.4807074,49.4517619 48.4807074,48.7231887 C48.4807074,47.730312 49.473584,47 50.3047486,47 C51.1411298,47 51.9705556,47.365156 52.7008677,48.4588852 L62.0210473,62.4704434 L71.3464366,48.4588852 C72.0750098,47.365156 72.9061744,47 73.7425556,47 Z" id="Combined-Shape" fill="#F95456"></path>
            </g>
        </g>
    </g>
</svg>