<?xml version="1.0" encoding="UTF-8"?>
<svg width="243px" height="243px" viewBox="0 0 243 243" version="1.1" xmlns="http://www.w3.org/2000/svg" xmlns:xlink="http://www.w3.org/1999/xlink">
    <!-- Generator: Sketch 60 (88103) - https://sketch.com -->
    <title>2</title>
    <desc>Created with Sketch.</desc>
    <defs>
        <filter x="-34.7%" y="-34.7%" width="169.4%" height="169.4%" filterUnits="objectBoundingBox" id="filter-1">
            <feOffset dx="0" dy="2" in="SourceAlpha" result="shadowOffsetOuter1"></feOffset>
            <feGaussianBlur stdDeviation="15.5" in="shadowOffsetOuter1" result="shadowBlurOuter1"></feGaussianBlur>
            <feColorMatrix values="0 0 0 0 0.772107111   0 0 0 0 0.772107111   0 0 0 0 0.772107111  0 0 0 0.342903191 0" type="matrix" in="shadowBlurOuter1" result="shadowMatrixOuter1"></feColorMatrix>
            <feMerge>
                <feMergeNode in="shadowMatrixOuter1"></feMergeNode>
                <feMergeNode in="SourceGraphic"></feMergeNode>
            </feMerge>
        </filter>
    </defs>
    <g id="Wireframes" stroke="none" stroke-width="1" fill="none" fill-rule="evenodd">
        <g id="Home-page" transform="translate(-123.000000, -341.000000)">
            <g id="2" filter="url(#filter-1)" transform="translate(153.000000, 369.000000)">
                <circle id="Oval" fill="#0E2259" cx="91.5" cy="91.5" r="91.5"></circle>
                <path d="M48.473,104.796 L48.473,99.421 L35.745,93.272 L48.473,87.123 L48.473,81.834 L29.983,91.165 L29.983,95.508 L48.473,104.796 Z M57.1876667,106 L57.1876667,93.573 C57.3166667,91.251 58.7356667,89.445 61.1436667,89.445 C63.8956667,89.445 65.0566667,91.294 65.0566667,93.659 L65.0566667,106 L70.7756667,106 L70.7756667,92.67 C70.7756667,88.026 68.2816667,84.285 62.9066667,84.285 C60.8856667,84.285 58.5636667,84.973 57.1876667,86.607 L57.1876667,74.868 L51.4686667,74.868 L51.4686667,106 L57.1876667,106 Z M83.2313333,106.301 C84.9083333,106.301 85.9403333,106 86.4563333,105.785 L86.4563333,101.055 C86.1553333,101.141 85.3813333,101.227 84.6933333,101.227 C83.0593333,101.227 82.1993333,100.625 82.1993333,98.776 L82.1993333,89.918 L86.4563333,89.918 L86.4563333,84.844 L82.1993333,84.844 L82.1993333,78.523 L77.0393333,78.523 L77.0393333,81.49 C77.0393333,83.382 76.0073333,84.844 73.7713333,84.844 L72.6963333,84.844 L72.6963333,89.918 L76.5233333,89.918 L76.5233333,99.765 C76.5233333,103.85 79.1033333,106.301 83.2313333,106.301 Z M95.3,106 L95.3,93.616 C95.3,91.294 96.762,89.445 99.256,89.445 C101.836,89.445 102.997,91.165 102.997,93.444 L102.997,106 L108.673,106 L108.673,93.616 C108.673,91.337 110.135,89.445 112.586,89.445 C115.209,89.445 116.327,91.165 116.327,93.444 L116.327,106 L121.874,106 L121.874,92.283 C121.874,86.607 118.133,84.242 114.22,84.242 C111.425,84.242 109.189,85.188 107.512,87.768 C106.437,85.489 104.115,84.242 101.234,84.242 C98.912,84.242 96.203,85.36 95.042,87.424 L95.042,84.844 L89.581,84.844 L89.581,106 L95.3,106 Z M131.964667,106 L131.964667,74.868 L126.245667,74.868 L126.245667,106 L131.964667,106 Z M134.960333,104.796 L153.450333,95.465 L153.450333,91.165 L134.960333,81.834 L134.960333,87.209 L147.688333,93.358 L134.960333,99.507 L134.960333,104.796 Z" id="&lt;html&gt;" fill="#52EBA0" fill-rule="nonzero"></path>
            </g>
        </g>
    </g>
</svg>