<?xml version="1.0" encoding="UTF-8"?>
<svg width="78px" height="78px" viewBox="0 0 78 78" version="1.1" xmlns="http://www.w3.org/2000/svg" xmlns:xlink="http://www.w3.org/1999/xlink">
    <!-- Generator: Sketch 60 (88103) - https://sketch.com -->
    <title>3</title>
    <desc>Created with Sketch.</desc>
    <g id="Wireframes" stroke="none" stroke-width="1" fill="none" fill-rule="evenodd">
        <g id="Home-page" transform="translate(-299.000000, -224.000000)">
            <g id="3" transform="translate(299.000000, 224.000000)">
                <circle id="Oval" fill="#D5F2FD" cx="39" cy="39" r="39"></circle>
                <path d="M61.2079454,37.1295612 L42.8695117,18.7920625 C41.814557,17.7359792 40.1015834,17.7359792 39.0449514,18.7920625 L35.2371631,22.6004479 L40.0674804,27.4308134 C41.1900819,27.0517639 42.4776075,27.3061408 43.3721107,28.2006529 C44.2716454,29.1013148 44.5237835,30.3994755 44.1352337,31.5260018 L48.7905638,36.1813783 C49.9170788,35.7933837 51.2163446,36.0438471 52.1158794,36.945068 C53.3732155,38.2018576 53.3732155,40.2385499 52.1158794,41.4964576 C50.8579843,42.7538062 48.8213123,42.7538062 47.5634172,41.4964576 C46.6180391,40.5499519 46.3837911,39.1606628 46.8629094,37.9961198 L42.5212145,33.6543815 L42.5206554,45.0795377 C42.8275818,45.2310457 43.1166182,45.4339881 43.3721107,45.688365 C44.6294467,46.9451546 44.6294467,48.9812878 43.3721107,50.2403136 C42.1147746,51.4971032 40.0769845,51.4971032 38.8207666,50.2403136 C37.5639896,48.9812878 37.5639896,46.9451546 38.8207666,45.688365 C39.1316064,45.3780811 39.4910849,45.1432717 39.8746032,44.9856139 L39.8746032,33.4542345 C39.4910849,33.2976948 39.1321655,33.0645626 38.8207666,32.7520424 C37.8686797,31.8005052 37.6394633,30.40283 38.1275266,29.2338144 L33.3665333,24.4710964 L20.7920546,37.0445825 C19.7359818,38.101784 19.7359818,39.8142157 20.7920546,40.8708581 L39.1304883,59.2077977 C39.6554499,59.7333236 40.3430992,59.9972046 41.0318667,60 L41.0531111,60 C41.7418786,59.9972046 42.4295279,59.7333236 42.9556076,59.2077977 L61.2079454,40.9552777 C62.2640182,39.8991943 62.2640182,38.1856445 61.2079454,37.1295612" id="Fill-4" fill="#3FDEEE"></path>
            </g>
        </g>
    </g>
</svg>