<?xml version="1.0" encoding="UTF-8"?>
<svg width="102px" height="102px" viewBox="0 0 102 102" version="1.1" xmlns="http://www.w3.org/2000/svg" xmlns:xlink="http://www.w3.org/1999/xlink">
    <!-- Generator: Sketch 60 (88103) - https://sketch.com -->
    <title>5</title>
    <desc>Created with Sketch.</desc>
    <g id="Wireframes" stroke="none" stroke-width="1" fill="none" fill-rule="evenodd">
        <g id="Home-page" transform="translate(-670.000000, -167.000000)">
            <g id="5" transform="translate(670.000000, 167.000000)">
                <circle id="Oval" fill="#F95456" cx="51" cy="51" r="51"></circle>
                <path d="M53.8826667,71.031 L53.8826667,66.387 C59.0426667,65.57 61.8806667,61.915 61.8806667,57.959 C61.8806667,54.089 59.4296667,50.864 54.0116667,49.66 L50.0986667,48.757 C48.0776667,48.327 47.1316667,47.209 47.1316667,45.876 C47.1316667,44.113 48.6366667,42.522 51.3886667,42.522 C54.9146667,42.522 56.0326667,45.016 56.2906667,46.521 L61.5796667,45.016 C60.9776667,42.135 58.8276667,38.695 53.8826667,37.792 L53.8826667,33.062 L49.4966667,33.062 L49.4966667,37.663 C44.8956667,38.394 41.3696667,41.748 41.3696667,46.306 C41.3696667,50.434 44.2506667,53.358 48.8946667,54.39 L52.8506667,55.25 C55.0006667,55.723 56.0756667,56.841 56.0756667,58.303 C56.0756667,60.195 54.4416667,61.528 51.6466667,61.528 C47.6906667,61.528 45.8846667,59.034 45.6266667,56.325 L40.2946667,57.615 C40.6816667,61.27 43.5196667,65.613 49.4966667,66.43 L49.4966667,71.031 L53.8826667,71.031 Z" id="$" fill="#F9D233" fill-rule="nonzero"></path>
            </g>
        </g>
    </g>
</svg>