<?xml version="1.0" encoding="UTF-8"?>
<svg width="104px" height="104px" viewBox="0 0 104 104" version="1.1" xmlns="http://www.w3.org/2000/svg" xmlns:xlink="http://www.w3.org/1999/xlink">
    <!-- Generator: Sketch 60 (88103) - https://sketch.com -->
    <title>6</title>
    <desc>Created with Sketch.</desc>
    <g id="Wireframes" stroke="none" stroke-width="1" fill="none" fill-rule="evenodd">
        <g id="Home-page" transform="translate(-787.000000, -317.000000)">
            <g id="6" transform="translate(787.000000, 317.000000)">
                <circle id="Oval" fill="#AC66B4" cx="52" cy="52" r="52"></circle>
                <path d="M36.3045,63.301 C38.4975,63.301 40.2605,61.538 40.2605,59.388 C40.2605,57.238 38.4975,55.475 36.3045,55.475 C34.1545,55.475 32.3915,57.238 32.3915,59.388 C32.3915,61.538 34.1545,63.301 36.3045,63.301 Z M47.4701667,38.361 C49.4481667,38.361 50.9961667,36.813 50.9961667,34.878 C50.9961667,32.9 49.4481667,31.309 47.4701667,31.309 C45.5351667,31.309 43.9441667,32.9 43.9441667,34.878 C43.9441667,36.813 45.5351667,38.361 47.4701667,38.361 Z M43.7291667,71.815 C47.8141667,71.815 50.3511667,68.934 50.3511667,64.849 L50.3511667,41.844 L44.6321667,41.844 L44.6321667,64.29 C44.6321667,65.838 43.9871667,66.784 42.2671667,66.784 C41.4501667,66.784 40.8911667,66.655 40.5041667,66.569 L40.5041667,71.342 C40.8051667,71.471 42.0521667,71.815 43.7291667,71.815 Z M62.0328333,63.645 C67.5798333,63.645 70.2458333,60.119 70.2458333,56.679 C70.2458333,53.583 68.1388333,51.046 63.9678333,50.186 L60.9578333,49.541 C59.7968333,49.326 59.0228333,48.681 59.0228333,47.649 C59.0228333,46.445 60.2268333,45.542 61.7318333,45.542 C64.1398333,45.542 65.0428333,47.133 65.2148333,48.38 L69.9878333,47.305 C69.7298333,45.026 67.7088333,41.199 61.6888333,41.199 C57.1308333,41.199 53.7768333,44.338 53.7768333,48.122 C53.7768333,51.089 55.6258333,53.54 59.7108333,54.443 L62.5058333,55.088 C64.1398333,55.432 64.7848333,56.206 64.7848333,57.152 C64.7848333,58.27 63.8818333,59.259 61.9898333,59.259 C59.4958333,59.259 58.2488333,57.711 58.1198333,56.034 L53.2178333,57.109 C53.4758333,59.517 55.6688333,63.645 62.0328333,63.645 Z" id=".js" fill="#52EBA0" fill-rule="nonzero"></path>
            </g>
        </g>
    </g>
</svg>