<?xml version="1.0" encoding="UTF-8"?>
<svg width="116px" height="116px" viewBox="0 0 116 116" version="1.1" xmlns="http://www.w3.org/2000/svg" xmlns:xlink="http://www.w3.org/1999/xlink">
    <!-- Generator: Sketch 60 (88103) - https://sketch.com -->
    <title>7</title>
    <desc>Created with Sketch.</desc>
    <g id="Wireframes" stroke="none" stroke-width="1" fill="none" fill-rule="evenodd">
        <g id="Home-page" transform="translate(-1011.000000, -218.000000)">
            <g id="7" transform="translate(1011.000000, 218.000000)">
                <circle id="Oval" fill="#52EBA0" cx="58" cy="58" r="58"></circle>
                <path d="M84.3625019,58.6811948 C84.3625019,44.4978085 72.864581,33 58.6813071,33 C44.4979209,33 33,44.4978085 33,58.6811948 C33,69.9388525 40.2441743,79.503436 50.3246663,82.9709078 C50.9391962,82.5274489 51.6469559,81.9804263 51.6469559,81.0586876 C51.6469559,79.6462011 51.6164035,76.0127129 51.6164035,76.0127129 C51.6164035,76.0127129 50.5015782,76.2024298 48.9108319,76.2024298 C44.9022908,76.2024298 43.6348158,73.6587186 43.0315184,72.2348872 C42.2463668,70.380739 41.2282533,69.5099958 40.1465639,68.813918 C39.482274,68.3860722 39.3296244,67.882407 40.0982641,67.7381817 C43.6461606,67.0737795 44.5535217,71.7400957 46.9231293,72.4842487 C48.6144064,73.0144225 50.7891301,72.7852796 51.8709319,72.0893141 C52.0134723,70.6642472 53.0467497,69.4314806 53.9070466,68.7823546 C47.880138,68.2064645 44.3066314,66.1245212 42.4537187,62.7783604 L42.2552405,62.4036443 L41.7895412,61.3406008 L41.6520554,60.9595945 C41.0717846,59.2611286 40.8146728,57.3158848 40.8146728,55.1428459 C40.8146728,51.2852695 42.0236264,49.8298748 43.6461606,47.773317 C42.405419,43.3752328 44.0916414,40.3695289 44.0916414,40.3695289 C44.0916414,40.3695289 46.7003889,39.8316047 51.6316797,43.3436695 C54.304003,42.204582 61.4305731,42.1096674 64.8029056,43.090489 C66.8708083,41.730009 70.6567214,39.799929 72.1838917,40.3403244 C72.5974722,41.0022555 73.4883216,42.9323354 72.7247364,47.1721537 C73.2426669,48.1023168 75.9380168,50.0830553 75.9482384,55.6833537 C75.9049933,57.7486729 75.6885431,59.492855 75.2876553,60.9672326 L75.0650272,61.7214947 C75.0650272,61.7214947 74.937763,62.0771156 74.7990416,62.416337 L74.6361704,62.7909408 C72.8481816,66.69648 69.1805467,68.1545704 63.2541689,68.7607883 C65.1744766,69.9631147 65.7255429,71.4716391 65.7255429,75.5533038 C65.7255429,79.6348562 65.6707283,80.1828898 65.6835334,81.1219265 C65.6945412,81.9516711 66.3582695,82.548229 66.9551644,83 C77.0790139,79.5566781 84.3625019,69.9696296 84.3625019,58.6811948" id="Fill-1" fill="#0E2259"></path>
            </g>
        </g>
    </g>
</svg>