<?xml version="1.0" encoding="UTF-8"?>
<svg width="123px" height="123px" viewBox="0 0 123 123" version="1.1" xmlns="http://www.w3.org/2000/svg" xmlns:xlink="http://www.w3.org/1999/xlink">
    <!-- Generator: Sketch 60 (88103) - https://sketch.com -->
    <title>8</title>
    <desc>Created with Sketch.</desc>
    <g id="Wireframes" stroke="none" stroke-width="1" fill="none" fill-rule="evenodd">
        <g id="Home-page" transform="translate(-1164.000000, -392.000000)">
            <g id="8" transform="translate(1164.000000, 392.000000)">
                <circle id="Oval" fill="#F9D233" cx="61.5" cy="61.5" r="61.5"></circle>
                <path d="M33.292,79 L33.292,66.831 C33.292,64.38 34.754,62.445 37.248,62.445 C40,62.445 41.161,64.294 41.161,66.659 L41.161,79 L46.88,79 L46.88,65.67 C46.88,61.026 44.472,57.285 39.226,57.285 C36.947,57.285 34.41,58.274 33.12,60.467 L33.12,57.844 L27.573,57.844 L27.573,79 L33.292,79 Z M62.8186667,79 L73.9126667,45.976 L79.5456667,45.976 L79.5456667,41.203 L70.1286667,41.203 L60.3246667,71.131 L55.1646667,55.909 L49.5746667,55.909 L57.7446667,79 L62.8186667,79 Z M85.7663333,79.602 C88.9053333,79.602 90.9263333,78.14 92.0013333,76.463 C92.0013333,77.28 92.0873333,78.441 92.2163333,79 L97.4623333,79 C97.3333333,78.269 97.2043333,76.764 97.2043333,75.646 L97.2043333,65.24 C97.2043333,60.983 94.7103333,57.199 88.0023333,57.199 C82.3263333,57.199 79.2733333,60.854 78.9293333,64.165 L84.0033333,65.24 C84.1753333,63.391 85.5513333,61.8 88.0453333,61.8 C90.4533333,61.8 91.6143333,63.047 91.6143333,64.552 C91.6143333,65.283 91.2273333,65.885 90.0233333,66.057 L84.8203333,66.831 C81.2943333,67.347 78.4993333,69.454 78.4993333,73.238 C78.4993333,76.549 81.2513333,79.602 85.7663333,79.602 Z M86.9703333,75.345 C85.1213333,75.345 84.2183333,74.141 84.2183333,72.894 C84.2183333,71.26 85.3793333,70.443 86.8413333,70.228 L91.6143333,69.497 L91.6143333,70.443 C91.6143333,74.184 89.3783333,75.345 86.9703333,75.345 Z" id="n√a" fill="#F95456" fill-rule="nonzero"></path>
            </g>
        </g>
    </g>
</svg>