<?xml version="1.0" encoding="UTF-8"?>
<svg width="212px" height="212px" viewBox="0 0 212 212" version="1.1" xmlns="http://www.w3.org/2000/svg" xmlns:xlink="http://www.w3.org/1999/xlink">
    <!-- Generator: Sketch 60 (88103) - https://sketch.com -->
    <title>9</title>
    <desc>Created with Sketch.</desc>
    <g id="Wireframes" stroke="none" stroke-width="1" fill="none" fill-rule="evenodd">
        <g id="Home-page" transform="translate(-1221.000000, -148.000000)">
            <g id="9" transform="translate(1221.000000, 148.000000)">
                <circle id="Oval" fill="#3FDEEE" cx="106" cy="106" r="106"></circle>
                <path d="M176.067441,94.5689655 L176.067441,101.106322 L164.482192,101.106322 L164.482192,104.123563 L170.328618,104.123563 C173.488024,104.123563 176.853574,106.497668 176.995359,110.538696 L177,110.804598 L177,113.318966 C176.859457,118.139514 172.898451,119.926844 170.477852,119.997789 L170.328618,120 L158.599899,120 L158.599899,113.498563 L170.472089,113.462644 L170.472089,110.301724 L169.606337,110.301914 C163.836165,110.304671 172.672825,110.336104 164.948472,110.301724 C162.105007,110.301724 158.402603,108.134064 158.246341,103.899768 L158.241223,103.62069 L158.241223,101.357759 C158.241223,97.0336574 161.917485,94.6707728 164.764049,94.572182 L164.948472,94.5689655 L176.067441,94.5689655 Z M94.437869,94.3899103 C94.6613618,94.4139161 102.036625,95.2666754 102.036625,103.261494 C102.036625,111.254421 95.9514356,111.899731 95.764199,111.917695 L95.7597878,111.918103 L103.758272,120 L93.5718616,120 L87.6178328,113.821839 L87.6178328,120 L80.7312453,120 L80.7312453,94.3893678 L94.437869,94.3899103 Z M119.037888,94.5689655 C120.727653,94.5689655 125.527054,95.7454167 125.70423,100.951021 L125.70927,101.25 L125.70927,120 L118.930285,120 L118.930285,115.510057 L112.366507,115.510057 L112.366507,120 L105.372316,120 L105.372316,101.25 C105.372316,99.1370859 106.992635,94.7455389 111.754221,94.5741337 L112.043698,94.5689655 L119.037888,94.5689655 Z M136.182622,94.5689655 L136.182622,120 L128.90149,120 L128.90149,94.5689655 L136.182622,94.5689655 Z M146.4049,94.5689655 L146.4049,113.426724 L156.196767,113.426724 L156.196767,120 L139.159636,120 L139.159636,94.5689655 L146.4049,94.5689655 Z M116.347815,90.3304598 C116.347815,90.3304598 115.738065,90.7614943 115.092448,91.3002874 C94.7196262,76.2140805 82.2735539,83.3261494 78.3639808,85.2298851 C60.6094973,95.1512213 65.740188,119.506501 65.8445772,119.992615 L65.8461733,120 L37.510735,120 C37.510735,120 38.5508967,109.367816 46.0831018,96.795977 C53.6153069,84.2241379 66.4559232,74.7054598 76.9292751,73.7715517 C97.6966406,71.6882184 116.347815,90.3304598 116.347815,90.3304598 Z M66.9222026,112.816092 L70.7959081,114.216954 C70.9842132,115.694145 71.2549018,117.088834 71.5358884,118.352893 L71.6567315,118.886494 L67.3526143,117.341954 C67.1732761,116.264368 66.9939379,114.719828 66.9222026,112.816092 Z M116.921697,100.639368 L114.518565,100.639368 C112.406085,100.639368 112.333241,101.945284 112.330729,102.035348 L112.330639,108.25431 L118.894418,108.25431 L118.894418,102.04023 C118.894418,102.04023 118.85855,100.639368 116.921697,100.639368 Z M36.7933822,101.178161 L40.9181612,102.686782 C40.4016671,103.882902 39.7399091,105.428161 39.2728047,106.615553 L39.124779,106.997126 L35,105.488506 C35.3586764,104.518678 36.1118969,102.722701 36.7933822,101.178161 Z M93.1414499,100.818966 L87.6178328,100.818966 L87.6178328,106.673851 L93.1055822,106.673851 C93.1055822,106.673851 94.6837585,106.063218 94.6837585,103.728448 C94.6837585,101.393678 93.1414499,100.818966 93.1414499,100.818966 Z M68.5362465,99.7413793 L71.1187168,101.788793 C70.8198198,102.956178 70.595647,104.123563 70.4461985,105.290948 L70.3654963,105.991379 L67.4602172,103.692529 C67.7471584,102.399425 68.0699672,101.070402 68.5362465,99.7413793 Z M74.8848194,89.7198276 L76.4988633,92.1623563 C75.8412899,92.8508142 75.2335326,93.539272 74.6963482,94.2693034 L74.3826724,94.7126437 L72.6610255,92.1264368 C73.3066431,91.3002874 74.0598636,90.4741379 74.8848194,89.7198276 Z M49.2035868,84.4037356 L51.7501894,86.6307471 C51.0615307,87.3491379 50.3958272,88.1135057 49.7714433,88.887069 L49.3111897,89.4683908 L46.5493812,87.0977011 C47.374337,86.1997126 48.271028,85.3017241 49.2035868,84.4037356 Z M84.7484213,84.2600575 L85.5375095,86.6307471 C84.6707081,86.9001437 83.8039067,87.2443726 82.9371053,87.6426471 L82.4170245,87.887931 L81.5920687,85.4094828 C82.4887598,85.0143678 83.5289214,84.6192529 84.7484213,84.2600575 Z M93.1414499,83.3979885 C94.0979204,83.4578544 95.0792989,83.5676086 96.0855856,83.7480377 L96.6923466,83.8649425 L96.548876,86.091954 C95.5625158,85.8824234 94.5761556,85.7477251 93.5897954,85.6878592 L92.9979793,85.6609195 L93.1414499,83.3979885 Z M63.6941147,73.4841954 L65.3081586,75.9626437 C64.5621116,76.3362069 63.83902,76.7557471 63.1021551,77.2028736 L62.5463501,77.5431034 L60.8964385,75.0287356 C61.8648649,74.454023 62.7974236,73.9511494 63.6941147,73.4841954 Z M93.2131851,72.1192529 C95.3786941,72.7388649 96.2924472,73.1605454 96.6489494,73.3526801 L96.6923466,73.3764368 L96.548876,75.783046 C95.6880525,75.4328305 94.8272291,75.1028197 93.951274,74.7930136 L93.0697146,74.4899425 L93.2131851,72.1192529 Z M79.5117454,70 L80.2290983,72.191092 L79.8704218,72.191092 C79.0382925,72.191092 78.2061632,72.2140805 77.3740338,72.2784483 L76.7499369,72.3347701 L76.0684516,70.2155172 C77.2520839,70.0718391 78.3998484,70 79.5117454,70 Z" id="Combined-Shape" fill="#0E2259"></path>
            </g>
        </g>
    </g>
</svg>