<?xml version="1.0" encoding="UTF-8"?>
<svg width="23px" height="23px" viewBox="0 0 23 23" version="1.1" xmlns="http://www.w3.org/2000/svg" xmlns:xlink="http://www.w3.org/1999/xlink">
    <!-- Generator: Sketch 60 (88103) - https://sketch.com -->
    <title>Group 2</title>
    <desc>Created with Sketch.</desc>
    <g id="Symbols" stroke="none" stroke-width="1" fill="none" fill-rule="evenodd">
        <g id="Profile-banner" transform="translate(-1137.000000, -94.000000)">
            <g id="Group-2" transform="translate(1137.000000, 94.000000)">
                <circle id="Combined-Shape" fill="#0E2259" cx="11.5" cy="11.5" r="11.5"></circle>
                <path d="M10.8477344,5.56905409 C10.8928982,5.42470796 11.0506107,5.30769231 11.2004949,5.30769231 L14.4265117,5.30769231 C14.5761722,5.30769231 14.6509251,5.42336484 14.5948664,5.56260319 L12.9161329,9.73223482 C12.8594521,9.87301821 12.9361676,9.9871457 13.0833108,9.9871457 L15.7733975,9.9871457 C15.9224081,9.9871457 15.9684291,10.0827411 15.8737518,10.2037788 L10.2567911,17.3846384 C9.88510927,17.8598055 9.73006765,17.7748581 9.90981724,17.1970846 L11.3868415,12.44945 C11.4315504,12.3057408 11.3451559,12.1892414 11.1998911,12.1892414 L9.04427928,12.1892414 C8.89632048,12.1892414 8.81374785,12.0697992 8.85815238,11.9278796 L10.8477344,5.56905409 Z" id="Path" fill="#52EBA0"></path>
            </g>
        </g>
    </g>
</svg>