<?xml version="1.0" encoding="UTF-8"?>
<svg width="196px" height="27px" viewBox="0 0 196 27" version="1.1" xmlns="http://www.w3.org/2000/svg" xmlns:xlink="http://www.w3.org/1999/xlink">
    <!-- Generator: Sketch 60 (88103) - https://sketch.com -->
    <title>coursera</title>
    <desc>Created with Sketch.</desc>
    <g id="Wireframes" stroke="none" stroke-width="1" fill="none" fill-rule="evenodd" fill-opacity="0.3">
        <g id="Home-page" transform="translate(-395.000000, -1566.000000)" fill="#2A2536" fill-rule="nonzero">
            <g id="coursera" transform="translate(395.000000, 1566.000000)">
                <path d="M98.5098921,8.62345627 C98.6296404,6.35512056 99.455213,4.50113417 100.745578,3.05469209 L100.745578,1.12811896 L99.0307205,1.12811896 C95.56416,1.12811896 92.6299421,2.43694867 90.9239122,5.39334622 L90.824122,5.39334622 L90.824122,1.45324708 L81.9331924,1.45324708 L81.9331924,25.4805931 L90.826041,25.4805931 L90.826041,15.7808116 C90.826041,11.6637822 92.0488557,8.52516172 96.9834847,8.52516172 C97.5208169,8.52894228 98.0236064,8.55918676 98.5098921,8.62345627 L98.5098921,8.62345627 Z M165.837622,8.53574729 C166.57607,6.41220701 167.773937,4.52079308 169.331049,3.00327648 L169.331049,1.12622868 L167.619262,1.12622868 C164.15155,1.12622868 161.220403,2.43430228 159.505545,5.38956566 L159.409593,5.38956566 L159.409593,1.45324708 L150.512907,1.45324708 L150.512907,25.4805931 L159.409593,25.4805931 L159.409593,15.7808116 C159.409593,11.6637822 160.636246,8.52516172 165.570875,8.52516172 L165.837622,8.53574729 Z M116.568861,7.63483996 C115.197129,6.932412 113.28768,6.46400067 111.768949,6.46400067 C110.748785,6.46400067 108.986336,6.88213056 108.986336,8.10325128 C108.986336,9.74401411 111.768949,9.97651852 112.999056,10.216206 C117.14419,11.0101235 120.279908,12.885281 120.279908,17.3289507 C120.279908,23.6500462 114.267928,26.2813156 108.447852,26.2813156 C104.878047,26.2813156 101.366581,25.2964799 98.3318048,23.5158363 L101.55695,17.5633454 C103.36277,18.7859783 106.393324,19.9995379 108.592932,19.9995379 C109.717875,19.9995379 111.378615,19.486516 111.378615,18.1746618 C111.378615,16.3010166 108.592932,16.202722 105.80341,15.5018063 C103.021564,14.7993783 100.239334,13.4909267 100.239334,9.1810888 C100.239334,3.27850122 105.80341,0.659707637 111.288037,0.659707637 C114.122464,0.659707637 116.959195,1.07934974 119.543763,2.2040662 L116.569245,7.63483996 L116.568861,7.63483996 Z M195.999616,25.4805931 L187.106768,25.4805931 L187.106768,22.8077375 L187.008896,22.8077375 C185.444876,25.1962951 182.359437,26.2722423 179.432512,26.2722423 C171.998904,26.2722423 166.773732,20.3231538 166.773732,13.4372427 C166.773732,6.55851466 171.906022,0.654036797 179.332338,0.654036797 C182.214357,0.654036797 185.248749,1.68386121 187.105232,3.78963287 L187.105232,1.45324708 L195.996162,1.45324708 L196,25.4805931 L195.999616,25.4805931 Z M175.962881,13.4890364 C175.962881,16.5316307 178.067688,18.8736873 181.679328,18.8736873 C185.294806,18.8736873 187.390402,16.5354112 187.390402,13.4890364 C187.390402,10.5379316 185.294806,8.05637234 181.679328,8.05637234 C178.067688,8.05864068 175.962881,10.5379316 175.962881,13.4890364 Z M149.110469,14.8976729 L130.387127,14.8976729 C130.387127,18.3606654 132.298111,20.2320423 135.961949,20.2320423 C137.86756,20.2320423 139.234303,19.6260187 140.214167,18.0317567 L148.769263,18.0317567 C147.351858,23.6999496 141.729443,26.2760229 136.012996,26.2760229 C127.710061,26.2760229 121.50349,21.7764009 121.50349,13.4909267 C121.50349,5.48256742 127.214564,0.659707637 135.375873,0.659707637 C144.074131,0.659707637 149.113924,5.81336638 149.113924,14.0058389 L149.110086,14.8980509 L149.110469,14.8976729 Z M140.84937,9.97651852 C140.40799,7.68134084 138.208766,6.1831051 135.81687,6.1831051 C133.223474,6.1831051 131.081821,7.49004453 130.535661,9.97651852 L140.84937,9.97651852 L140.84937,9.97651852 Z M53.6476393,13.0709065 C53.6380095,12.8656588 53.6247021,12.6605945 53.6077232,12.4558095 L53.6077232,12.4486264 C53.4081426,10.2196085 52.6604832,8.13349576 51.3919953,6.24926489 C50.8332503,5.41875033 50.1832451,4.65144966 49.4537611,3.96127027 C48.3956004,2.95828783 47.1704829,2.12883307 45.789539,1.47290599 C43.7115985,0.495253297 41.4156546,0.00189027976 38.9658034,0.00189027976 C38.7263067,0.00189027976 38.4756796,0.00529278333 38.2235172,0.0143661262 C36.5032865,0.0911114845 34.8390917,0.4128371 33.2746873,0.979542972 C31.6972333,1.54095606 30.3235818,2.28270184 29.2001737,3.17302361 C28.9718074,3.35184407 28.7230994,3.57149458 28.4563523,3.81307233 L28.2636803,3.99869781 L28.0007713,4.27392254 L28.0042256,4.27392254 L27.881023,4.39376628 L27.8211488,4.45803579 L27.5071933,4.78354196 C27.2809981,5.03414712 27.0607601,5.28990834 26.8466584,5.55061749 L26.8447394,5.54683693 L26.8370632,5.53965387 C26.4071974,6.05456608 26.0099554,6.58724691 25.7174931,7.0662438 C25.518567,7.3756539 25.3262367,7.68913092 25.1406286,8.00646896 L22.5764023,13.1140049 L22.5798566,13.1174074 L22.4455235,13.3767538 L22.1622727,13.9415694 C21.5999929,15.0625053 20.9974132,16.1796606 20.3238288,17.1021171 C18.8231366,18.723221 17.126702,19.5171385 14.945133,19.5171385 C14.7923772,19.5171385 14.6365508,19.5095774 14.4768864,19.5008821 C13.1627252,19.4490885 12.0358628,19.1436193 11.036041,18.560657 C10.9305799,18.4993003 10.8269097,18.4350048 10.7251559,18.3678484 C9.9087947,17.8332773 9.28280263,17.1467277 8.81455596,16.290431 C8.28643513,15.3195833 8.0523118,14.3275645 8.08531935,13.2765689 C8.08685458,13.2478367 8.08877363,13.222885 8.08877363,13.1994455 C8.15939444,11.5265479 8.8072636,10.2249013 10.1122133,9.10056288 C10.4228922,8.83823234 10.7562871,8.60319265 11.1085808,8.39813492 C11.1573245,8.36940267 11.2064521,8.3425607 11.2555796,8.31760901 C12.2246967,7.79740402 13.3281468,7.53843569 14.5927966,7.53843569 L14.9865844,7.54902126 C16.9958232,7.62425439 18.5456429,8.24275393 19.781507,9.44913047 L23.6579754,2.59384189 C22.7303096,1.98252541 21.6832794,1.45664958 20.5291665,1.02944636 C20.4854123,1.01356801 20.4401229,0.995421322 20.3948334,0.981433252 C20.2566623,0.93304209 20.120794,0.883138705 19.9791686,0.838150046 C18.7525158,0.434386289 17.4656051,0.186003529 16.1410811,0.0733428547 C16.1080735,0.0676720155 16.0719955,0.0642695119 16.0393718,0.0608670083 C15.8359531,0.0480131059 15.6290802,0.0230614131 15.4260454,0.0143661262 C15.2051932,0.00603872552 14.9842181,0.00124938366 14.7632077,0 L14.6377022,0 C12.2005167,0.0086952869 9.93604512,0.500546081 7.86501313,1.47441821 C5.54565688,2.5756952 3.66537784,4.17940855 2.27176829,6.24548433 C0.88199682,8.31269428 0.123206931,10.6063597 0.0145890557,13.067882 C0.00525509606,13.2763185 2.1590432e-06,13.4849259 2.1590432e-06,13.6935646 C-0.00191472034,17.1357641 1.27233031,20.1639923 3.80546803,22.7060405 C6.44991029,25.3732252 9.88883664,26.810594 14.0174673,26.9803411 C14.2822953,26.9909267 14.5440529,26.9981097 14.8050429,26.9981097 C17.1409029,26.9981097 19.3021299,26.5886751 21.2403641,25.770184 C21.7251145,25.5660338 22.1952802,25.3267244 22.6758088,25.060573 C22.9375664,24.911997 23.1843554,24.7547257 23.4292254,24.5868689 L23.6107669,24.4670251 L23.915511,24.2613627 C24.27939,24.0017755 24.6278231,23.7218046 24.959087,23.4228346 L25.0753811,23.3139545 C25.2721451,23.1313321 25.4644873,22.9441419 25.6522456,22.7525414 L26.3473232,21.9786608 L26.6121513,21.6512644 L26.7357377,21.472822 L26.8593241,21.297404 C27.8917696,19.5885911 31.2527828,13.3695707 31.2527828,13.3695707 L31.2527828,13.3570949 L31.4523634,12.9779047 L31.6193202,12.6811308 C32.1148173,11.7926993 32.472527,11.1617239 32.946147,10.4986138 L32.9588127,10.4789549 C34.0641819,8.90057128 35.9640352,7.77585483 38.2035592,7.58682685 C41.9602792,7.26850374 45.2522068,9.69940351 45.5554157,13.0172225 C45.8567056,16.3350416 43.0545179,19.2827438 39.2977979,19.6029572 C38.5155957,19.669117 37.7552706,19.6173234 37.0383158,19.4615643 L37.0202768,19.4691254 C34.2637624,18.9039318 32.508605,16.9232966 31.6431163,16.0382677 L28.0276379,22.5861968 C28.0276379,22.5861968 29.1514299,23.7018399 29.9209665,24.2594724 C30.6924221,24.8152147 31.6884057,25.3626397 32.4832737,25.7021339 C34.4122964,26.51382 36.510195,27 38.8276322,27 C39.0962983,27 39.0421813,27 39.3215941,26.9894144 C43.4463867,26.8192893 47.1232744,25.2624548 49.7750091,22.5952701 C52.2866535,20.0622952 53.6495583,17.1701672 53.662224,13.7464925 L53.662224,13.6444174 C53.6600351,13.4531902 53.6551731,13.2620018 53.6476393,13.0709065 L53.6476393,13.0709065 Z M67.4766522,26.2922793 C65.6017465,26.2922793 63.9014737,26.0775435 62.3750663,25.64845 C60.848659,25.2193565 59.5456283,24.5418802 58.4659743,23.6126187 C57.3824822,22.682601 56.5476982,21.4992859 55.9597032,20.0641855 C55.3717082,18.628707 55.0777107,16.898345 55.0777107,14.8817945 L55.0777107,1.4479543 L63.6562199,1.4479543 L63.6562199,14.7744266 C63.6562199,16.2851382 64.0227573,17.3792321 64.7539129,18.0620012 C65.4873715,18.7462824 66.4184915,19.088045 67.547273,19.088045 C68.7013859,19.088045 69.6378792,18.7697219 70.3605911,18.1315635 C71.0790811,17.493405 71.4417803,16.4352264 71.4417803,14.9479543 L71.4417803,1.44757624 L80.0202896,1.44757624 L80.0202896,14.7048643 C80.0202896,16.7928673 79.7193835,18.56784 79.118339,20.0282702 C78.5176784,21.4905906 77.6702286,22.6848694 76.5794442,23.6141309 C75.4832864,24.5441485 74.1641358,25.2193565 72.612397,25.6503403 C71.0606582,26.0775435 69.3492551,26.2919012 67.4766522,26.2919012 L67.4766522,26.2922793 Z" id="Shape"></path>
            </g>
        </g>
    </g>
</svg>