<?xml version="1.0" encoding="UTF-8"?>
<svg width="92px" height="43px" viewBox="0 0 92 43" version="1.1" xmlns="http://www.w3.org/2000/svg" xmlns:xlink="http://www.w3.org/1999/xlink">
    <!-- Generator: Sketch 60 (88103) - https://sketch.com -->
    <title>edx</title>
    <desc>Created with Sketch.</desc>
    <defs>
        <polygon id="path-1" points="0.327807304 0.236507317 35.6783464 0.236507317 35.6783464 42.1599486 0.327807304 42.1599486"></polygon>
    </defs>
    <g id="Wireframes" stroke="none" stroke-width="1" fill="none" fill-rule="evenodd">
        <g id="Home-page" transform="translate(-644.000000, -1553.000000)">
            <g id="edx" transform="translate(644.000000, 1553.000000)">
                <g id="Group-3" transform="translate(55.760000, 0.000000)">
                    <mask id="mask-2" fill="white">
                        <use xlink:href="#path-1"></use>
                    </mask>
                    <g id="Clip-2"></g>
                    <polygon id="Fill-1" fill-opacity="0.3" fill="#2A2536" mask="url(#mask-2)" points="35.6783464 6.87819834 35.6783464 0.236455902 18.8622914 0.236455902 18.8622914 6.87819834 22.6846206 6.87819834 15.872016 15.150813 9.0520989 6.87819834 12.8900977 6.87819834 12.8900977 0.236455902 0.327807304 0.236455902 0.327807304 7.67255444 11.1842044 20.8429271 0.327807304 34.0266676 0.327807304 35.3531652 5.50398701 35.3531652 5.50398701 42.1599486 12.8900977 42.1599486 12.8900977 35.3531652 8.61544035 35.3531652 15.8761946 26.5350413 15.8772392 26.5350413 23.1458282 35.3531652 18.8622914 35.3531652 18.8622914 42.1599486 35.6783464 42.1599486 35.6783464 35.3531652 32.524063 35.3531652 20.5640061 20.8429271 32.0639001 6.87819834"></polygon>
                </g>
                <polygon id="Fill-4" fill-opacity="0.534282124" fill="#BFBDC2" points="52.36 0 52.36 6.68095416 55.8226381 6.68095416 56.44 7.48 56.44 0"></polygon>
                <polygon id="Fill-5" fill-opacity="0.534282124" fill="#BFBDC2" points="54.9230654 35.3308553 51.68 35.3308553 51.68 42.16 61.2 42.16 61.2 35.3308553 56.017162 35.3308553 56.017162 34"></polygon>
                <g id="Group-15">
                    <path d="M25.1935733,32.2312686 L31.1120063,32.2312686 C30.409872,33.9562296 29.4250199,35.5295174 28.2092298,36.8889203 C26.9530514,35.5295174 25.9267755,33.9562296 25.1935733,32.2312686" id="Fill-6" fill-opacity="0.534282124" fill="#BFBDC2"></path>
                    <path d="M25.2067254,23.1305699 L24.1498993,23.1305699 C23.9919709,24.0349533 23.9101588,24.9655581 23.9101588,25.9146723 C23.9101588,26.8103152 23.9831683,27.6884772 24.1234916,28.5445308 L25.2502204,28.5445308 C25.4816762,27.7095572 25.6054299,26.827282 25.6054299,25.9146723 C25.6054299,24.9460206 25.46666,24.0107884 25.2067254,23.1305699 L25.2067254,23.1305699 Z M25.2067254,23.1305699 C25.46666,24.0107884 25.6054299,24.9460206 25.6054299,25.9146723 C25.6054299,26.827282 25.4816762,27.7095572 25.2502204,28.5445308 L31.0138318,28.5445308 C30.7709844,27.7095572 30.6415349,26.827282 30.6415349,25.9146723 C30.6415349,24.9460206 30.7880718,24.0107884 31.0604336,23.1305699 L25.2067254,23.1305699 Z M28.2094369,14.9407328 C26.5152013,16.7741786 25.2398644,18.995805 24.5351411,21.4549669 C24.8090564,21.985566 25.0348164,22.5459855 25.2067254,23.1305699 L31.0604336,23.1305699 C31.2370028,22.5552401 31.4689764,22.0030469 31.7491052,21.4801601 C31.0764854,19.0102011 29.8529283,16.7803484 28.2094369,14.9407328 L28.2094369,14.9407328 Z" id="Fill-8" fill-opacity="0.534282124" fill="#BFBDC2"></path>
                    <g id="Group-12" transform="translate(23.818716, 0.000000)" fill="#2A2536" fill-opacity="0.3">
                        <path d="M0.716529101,21.4550698 C0.558600661,22.0016073 0.430186716,22.5615127 0.331287266,23.1306727 L1.38811332,23.1306727 C1.21620433,22.5460883 0.99044433,21.9856688 0.716529101,21.4550698 L0.716529101,21.4550698 Z M25.6971838,39.2260239 L25.6971838,42.1602571 L28.1344597,42.1602571 L28.1344597,37.0743215 C27.3981508,37.8722766 26.5821008,38.5936239 25.6971838,39.2260239 L25.6971838,39.2260239 Z M31.779241,6.87799268 L28.1344597,6.87799268 L28.1344597,0.236250244 L21.2503331,0.236250244 L21.2503331,6.87799268 L25.6971838,6.87799268 L25.6971838,12.6035263 C23.1112997,10.7567127 19.9356436,9.67340634 16.4487908,9.67340634 C11.6762451,9.67340634 7.38007369,11.702742 4.39082488,14.9408356 C6.03431626,16.7804512 7.25787332,19.0103039 7.93049314,21.4797488 C9.53204286,18.4786766 12.7108058,16.4349449 16.3695676,16.4349449 C21.6428241,16.4349449 25.6971838,20.6792229 25.6971838,25.9147751 L25.6971838,25.9661898 C25.6697405,31.1786054 21.6257368,35.3946054 16.3695676,35.3946054 C12.7108058,35.3946054 9.53204286,33.3503595 7.93049314,30.3498015 C7.62602782,29.7801273 7.3780025,29.1760054 7.19521974,28.5446337 L0.30487956,28.5446337 C0.406885798,29.1672649 0.54462011,29.7780707 0.716529101,30.3744805 C0.898794055,31.0104795 1.11885828,31.6300259 1.37465057,32.2310629 L7.2930836,32.2310629 C6.59146708,33.9560239 5.60609717,35.5298259 4.39082488,36.8892288 C7.38007369,40.1262941 11.6762451,42.1561439 16.4487908,42.1561439 C19.9356436,42.1561439 23.1112997,41.0723234 25.6971838,39.2260239 C26.5821008,38.5936239 27.3981508,37.8722766 28.1344597,37.0743215 L28.1344597,35.3529595 L31.3453262,35.3529595 L32.4285599,34.026462 L32.4285599,7.67286293 L31.779241,6.87799268 Z" id="Fill-10"></path>
                    </g>
                    <path d="M23.2751311,32.2312686 C21.5860735,34.1726852 19.1073737,35.3942969 16.2786423,35.3942969 C11.9249953,35.3942969 8.25173512,32.5006813 7.10429439,28.5443252 L24.1238023,28.5443252 C23.9829612,27.6882715 23.9104694,26.8101096 23.9104694,25.9144666 C23.9104694,24.9658666 23.9922815,24.0352618 24.1496922,23.1303642 L0.240361908,23.1303642 C0.0824334679,24.0352618 0.000103559633,24.9658666 0.000103559633,25.9144666 C0.000103559633,26.8101096 0.0725953028,27.6882715 0.213436404,28.5443252 C1.47893512,36.2642325 8.22584521,42.1558354 16.3578654,42.1558354 C21.1298933,42.1558354 25.319916,40.1264998 28.2092298,36.8889203 C26.9535692,35.5295174 25.9267755,33.9562296 25.1935733,32.2312686 L23.2751311,32.2312686 Z M16.3578654,9.67309785 C8.27917842,9.67309785 1.569032,15.4870647 0.240361908,23.1303642 L7.15037842,23.1303642 C8.34804558,19.2537008 11.9814353,16.4351505 16.2786423,16.4351505 C19.9275659,16.4351505 22.9929311,18.467571 24.5354518,21.4552754 C25.2401751,18.9955993 26.515512,16.773973 28.2092298,14.9405271 C25.319916,11.7029476 21.1298933,9.67309785 16.3578654,9.67309785 L16.3578654,9.67309785 Z M32.1092856,23.1303642 C32.0160819,22.5699447 31.8954349,22.0187798 31.7488981,21.4799544 C31.4687692,22.0028413 31.2373135,22.5550344 31.0602265,23.1303642 C30.7883825,24.0110969 30.6418456,24.9458149 30.6418456,25.9144666 C30.6418456,26.8270764 30.7712951,27.7098657 31.0136247,28.5443252 L32.1331043,28.5443252 C32.2677318,27.6882715 32.336599,26.8101096 32.336599,25.9144666 C32.336599,24.9658666 32.2589292,24.0352618 32.1092856,23.1303642 L32.1092856,23.1303642 Z" id="Fill-13" fill-opacity="0.3" fill="#2A2536"></path>
                </g>
            </g>
        </g>
    </g>
</svg>