<?xml version="1.0" encoding="UTF-8"?>
<svg width="69px" height="69px" viewBox="0 0 69 69" version="1.1" xmlns="http://www.w3.org/2000/svg" xmlns:xlink="http://www.w3.org/1999/xlink">
    <!-- Generator: Sketch 60 (88103) - https://sketch.com -->
    <title>lynda</title>
    <desc>Created with Sketch.</desc>
    <g id="Wireframes" stroke="none" stroke-width="1" fill="none" fill-rule="evenodd" fill-opacity="0.3">
        <g id="Home-page" transform="translate(-1157.000000, -1540.000000)" fill="#2A2536" fill-rule="nonzero">
            <g id="lynda" transform="translate(1157.000000, 1540.000000)">
                <path d="M66.2645273,21.0882746 C64.5287461,16.9416659 62.0574141,13.2947525 58.8815273,10.1170784 C55.6778789,6.9412909 52.0311211,4.46922752 47.9129531,2.73538718 C43.6187812,0.912334771 39.1782539,0 34.5,0 C29.8236328,0 25.3542656,0.912334771 21.0889336,2.73538718 C16.9710352,4.46922752 13.3229297,6.9412909 10.1173945,10.1170784 C6.93962109,13.3244 4.47125391,16.9705048 2.73358594,21.0882746 C0.912363281,25.3823123 0,29.8237789 0,34.4989219 C0,39.1759515 0.912363281,43.6481438 2.73358594,47.9133426 C4.47125391,52.0303037 6.93962109,55.6753305 10.1173945,58.8807654 C13.2932812,62.0592481 16.9419258,64.5286163 21.0889336,66.2643433 C25.3542656,68.0890128 29.8239023,69 34.5,69 C39.1782539,69 43.6187812,68.0890128 47.9129531,66.2643433 C52.0311211,64.5286163 55.6781484,62.0592481 58.8815273,58.8807654 C62.0574141,55.6753305 64.5287461,52.0303037 66.2645273,47.9133426 C68.0916797,43.6481438 69,39.1759515 69,34.4989219 C69,29.8237789 68.0914102,25.3823123 66.2645273,21.0882746 Z M12.0139134,43.9705882 L6.76470588,38.9640194 L7.95789397,38.5588235 C8.5240091,38.6750508 9.09121765,38.8483254 9.68548819,39.0823793 C10.5826344,39.4004048 11.1479295,39.7509526 11.4169093,40.0719104 C11.8955514,40.6231901 12.1033,41.6420446 12.0139134,43.1258081 L11.9548691,43.9108752 L12.581942,43.4155765 C13.8940389,42.3388749 15.1457246,41.6996251 16.3088438,41.4962274 C17.0556457,41.3512099 19.0541332,41.1182222 22.2458088,40.7983307 L26.8086257,40.3627451 L27.7352941,41.0595754 L12.0139134,43.9705882 L12.0139134,43.9705882 Z M44.4430456,50.0588235 C43.7899089,48.4070396 43.3336507,46.8725837 42.9656754,45.4578889 C42.5669703,43.7744751 42.5112402,42.7717801 42.7964015,42.5038721 C43.3336507,42.0045521 43.7591792,41.4438648 44.1302796,40.8223507 C44.1563217,40.765579 44.2143957,40.6763665 44.27273,40.6168914 C44.27273,40.5882353 44.27273,40.5882353 44.3024181,40.5882353 L48.7058824,46.5181666 L44.4427852,50.0588235 L44.4430456,50.0588235 Z M42.0020176,36.3457011 C43.7341166,34.8521739 44.8204439,33.9155688 45.2026353,33.5366902 C46.0834775,32.656394 47.4315024,31.1647439 49.2496684,28.9979229 C44.5262022,32.568713 41.6187504,34.5596356 40.5657741,34.9100917 L39.5071496,35.3216831 C39.126034,35.4369823 38.774504,35.5243952 38.4506768,35.584458 C37.6298125,35.7016342 36.4832383,35.6131488 35.0168713,35.2911154 C33.6371092,34.967205 32.756267,34.2965925 32.3729997,33.2728427 C32.2861258,33.0079226 32.1696664,32.5402904 32.0521311,31.867801 C31.9345958,31.2524249 31.8181364,30.7550294 31.7006011,30.4324597 C31.5822589,30.1704892 31.3184097,29.6435985 30.8797368,28.8826236 C30.440257,28.0940306 30.0543002,27.3909735 29.8211123,26.8061651 C29.0282198,25.0203678 28.5876642,23.0600129 28.4117647,20.8653055 L28.5303758,20.8653055 C29.4122939,20.8653055 30.1729113,20.6025306 30.7909801,20.1348984 C30.9362183,20.0169178 31.0556363,19.9281642 31.1425102,19.8117924 L31.7006011,18.1144806 L31.7006011,18.0868624 C31.8181364,17.3258875 32.3463727,16.9151005 33.2847723,16.9151005 C34.2255925,16.9151005 34.7226296,17.2945154 34.8678677,17.9991814 C34.8390891,18.1144806 34.8390891,18.2335337 34.8390891,18.3783281 C34.8390891,19.0518901 35.1344066,19.6366985 35.7791024,20.1346302 C36.3944817,20.6025306 37.1596714,20.8653055 38.0388999,20.8653055 C38.920549,20.8653055 39.6545394,20.6025306 40.2981594,20.1348984 C40.8858358,19.6366985 41.2088561,19.0516219 41.2088561,18.3785962 L41.2088561,18.3499055 L42.4127187,18.3499055 L42.4127187,17.5886625 L41.0617353,17.5886625 C40.9164972,17.2374021 40.6510342,16.9153687 40.2984283,16.6239029 C39.6545394,16.1543938 38.920549,15.8913507 38.0388999,15.8913507 C37.1596714,15.8913507 36.3944817,16.1541256 35.7791024,16.6239029 C35.5746932,16.7713787 35.4275724,16.9456682 35.2804516,17.1221028 C35.2220874,17.0344218 35.1629163,16.9459364 35.1045521,16.8866779 C34.6642654,16.4171688 34.076589,16.1828164 33.2845034,16.1828164 C32.5222722,16.1828164 31.9047413,16.4171688 31.495116,16.8866779 C31.4063594,16.9456682 31.3461125,17.0341537 31.2915137,17.1221028 C31.1720957,16.9459364 30.9953893,16.8003376 30.7909801,16.6239029 C30.2912535,16.2428792 29.7331626,16.0077224 29.0588812,15.9200414 C30.2646265,12.8184923 32.9921444,9.5429218 37.2468142,6.08823529 C39.3304432,11.5316993 42.6171279,15.0426948 47.0810482,16.5638401 C47.1967007,16.8287602 47.3427457,17.1505254 47.5490376,17.4696093 C47.5490376,17.5296722 47.579699,17.5580948 47.606326,17.5886625 L44.3513785,17.5886625 L44.3513785,18.3499055 L48.0191788,18.3499055 C48.0460747,18.438391 48.1060527,18.524195 48.1367141,18.6126805 C48.4298799,19.3460372 48.2819522,20.1909392 47.7230544,21.0988535 L46.9021901,22.2121614 C46.6404926,22.6502984 46.6098312,23.0323947 46.7865376,23.3828507 C46.8752942,23.5858309 47.1410261,23.8810506 47.579699,24.2315066 C47.8432793,24.465859 47.9589319,24.8173875 47.9024504,25.2831428 C48.8397741,25.0487904 49.2230414,24.5819626 48.9860881,23.8209877 C48.8685528,23.3828507 48.8992142,22.9723318 49.1055061,22.5626174 L49.3701622,22.0359949 C49.397865,21.975932 49.4266437,21.9475094 49.4266437,21.9188187 L49.4266437,21.8912005 C49.4589188,21.8912005 49.4589188,21.8912005 49.4589188,21.8606328 C49.955687,21.0395951 50.2491217,20.4260959 50.3962426,20.0166496 C50.4239454,19.8710508 50.4516482,19.7519977 50.4516482,19.6366985 C50.4516482,19.2862425 50.2795142,18.9347139 49.8965159,18.6413712 L50.9543335,18.6413712 C51.9231255,19.5490174 52.1275347,21.2160297 51.627808,23.6142535 C51.7157577,25.0200997 51.5121554,25.8097653 51.0116218,25.9575092 C50.5108193,26.0736128 50.0121684,25.9288184 49.4847389,25.5182996 L49.5154003,39.2402478 L56.4994708,39.269743 L57.5,40.6174032 L49.4850079,46 L42.0020176,36.3454329 L42.0020176,36.3457011 Z M28.1509001,18.1959123 C28.206837,18.3660722 28.3785685,18.4523248 28.6932789,18.4523248 C28.8354737,18.4523248 28.9784526,18.3965603 29.0916333,18.3087442 C29.1428576,18.286918 29.1839314,18.2466221 29.2066438,18.1959123 L31.1176471,18.1959123 C31.0332189,18.5669809 30.8029366,18.8502334 30.4354259,19.1363523 C29.9766911,19.4464448 29.4073893,19.6176471 28.75,19.6176471 C28.0944404,19.6176471 27.5512774,19.4464448 27.0666652,19.1363523 C26.6108055,18.7947294 26.3823529,18.3965603 26.3823529,17.9402814 C26.3823529,17.4561203 26.6108055,17.0571694 27.0666652,16.747077 C27.5512774,16.4064964 28.0944404,16.2352941 28.75,16.2352941 C29.4073893,16.2352941 29.9766911,16.4064964 30.4354259,16.747077 C30.7472611,16.9443374 30.9469611,17.2004894 31.0593577,17.4868689 L27.5243545,17.4868689 L27.5243545,18.1956517 L28.1511615,18.1956517 L28.1509001,18.1959123 Z M37.7362879,18.1959123 C37.7919726,18.3660722 37.9637326,18.4523248 38.2481692,18.4523248 C38.561886,18.4523248 38.7328617,18.3663328 38.8180881,18.1959123 L40.5882353,18.1959123 C40.5333348,18.5669809 40.3040601,18.8502334 39.9336128,19.1363523 C39.4478746,19.4464448 38.8766486,19.6176471 38.2481692,19.6176471 C37.5626979,19.6176471 37.023105,19.4464448 36.5373667,19.1363523 C36.0806473,18.7947294 35.8529412,18.3965603 35.8529412,17.9402814 C35.8529412,17.8274495 35.8529412,17.7143569 35.8809143,17.6294072 C35.8809143,17.5997009 35.9086259,17.5147512 35.9394747,17.3432883 C35.9951595,17.20075 36.1946311,16.9722197 36.5373667,16.747077 C37.023105,16.4064964 37.5626979,16.2352941 38.2481692,16.2352941 C38.8766486,16.2352941 39.448136,16.4064964 39.9336128,16.747077 C40.2167423,16.9443374 40.4444484,17.2004894 40.5335963,17.4868689 L37.1363044,17.4868689 L37.1363044,18.1956517 L37.7362879,18.1956517 L37.7362879,18.1959123 Z M52.4529727,26.6884402 C52.668326,26.9052637 52.7647059,27.1513724 52.7647059,27.3966364 C52.7647059,27.6717489 52.668326,27.9198288 52.4529727,28.1028616 C52.2662187,28.3168692 52.0162602,28.4117647 51.7348423,28.4117647 C51.4534245,28.4117647 51.2349252,28.3168692 51.0184279,28.1028616 C50.8285281,27.9198288 50.7352941,27.6717489 50.7352941,27.3966364 C50.7352941,27.151654 50.8285281,26.9055453 51.0184279,26.6884402 C51.2349252,26.504281 51.4531385,26.3823529 51.7348423,26.3823529 C52.0162602,26.3823529 52.2662187,26.504281 52.4529727,26.6884402 Z M58.5152942,46.8911797 C56.6545554,48.3495709 54.4735793,49.8640952 51.9810353,51.4117647 L51.9529258,51.4117647 L50.0588235,46.6858929 L58.8586495,40.6470414 L58.8885978,40.6187075 L58.8885978,40.5882353 C59.4344986,40.9089958 59.9486121,41.348705 60.4367178,41.9022843 C60.8370801,42.3390532 61.1244792,42.7776932 61.3262366,43.1853264 C61.4399878,43.3609428 61.4969948,43.534688 61.553739,43.7405094 C61.6396435,44.1783475 60.6374243,45.2275017 58.5152942,46.8911797 Z M66.0537968,44.3880279 C64.5517943,43.7134512 63.3700103,43.2427789 62.4590348,43.0681573 C62.2527559,42.4545639 61.8393879,41.8380154 61.2802207,41.1929901 C60.632224,40.4885935 59.9863872,39.9923996 59.3351505,39.6087694 C58.6879637,39.2863911 58.1555264,39.1697976 57.7470185,39.3140619 L57.5674694,39.0811436 L60.1896962,39.0811436 C61.4856897,39.0811436 62.5781042,38.6993939 63.4604598,37.8794784 C64.5517943,36.8537781 65.0804517,35.3009892 65.0534518,33.188874 C64.9929721,31.1087279 64.4905046,28.5579095 63.5487494,25.5670448 C62.4590348,22.1372082 61.0156221,18.9725278 59.2479409,16.0695111 C57.0965917,12.6111977 54.652834,9.88360858 51.9415076,7.91978737 C48.7285237,5.6045738 45.2239412,4.43057945 41.4237103,4.43057945 C37.1202019,4.39914757 33.6742091,5.86784942 31.111382,8.79880556 C29.5192,10.5869306 28.309876,12.9316955 27.4572203,15.8339063 C27.0438524,15.9502311 26.6609943,16.1259273 26.3062161,16.392158 C25.9533278,16.6841791 25.6884592,17.006826 25.5418499,17.3587557 L24.0684673,17.3587557 L24.0684673,18.121449 L25.3652708,18.121449 L25.3652708,18.1499258 C25.3652708,18.824771 25.6884592,19.4106936 26.3062161,19.9095741 C26.3953156,19.9391254 26.4547153,19.9974221 26.514115,20.0546443 C26.1029071,22.7526821 25.9533278,25.6844442 26.0721273,28.8222598 C26.1593368,31.4281511 26.3359159,33.2482453 26.5727047,34.2712592 C26.9555628,35.739961 27.4869202,36.7936008 28.2215865,37.469252 C29.312111,38.495221 31.0509023,39.0220409 33.4074505,39.0220409 L43.3371907,39.0515922 L43.8952779,39.7844656 C43.6017894,40.4590422 43.1004019,41.1051421 42.3935454,41.720616 C42.2158863,41.8963122 42.1000569,42.1289618 42.0395772,42.4833093 C37.4136904,44.4156987 34.8508632,45.8537746 34.3810656,46.7634187 L31.8160785,51.3344745 L29.3428909,40.4313714 L28.1926966,40.6347384 L26.6015946,39.4016413 L21.739729,39.9037455 C18.6188146,40.2234374 16.6737444,40.4590422 15.9064082,40.6041124 C15.1123422,40.7510632 14.1973168,41.1338875 13.2258617,41.720616 C12.9312931,41.9247889 12.6666945,42.0720083 12.4604155,42.2170786 L12.4296356,41.5451884 C12.3116462,40.5479649 12.0759374,39.8435683 11.6930793,39.3731646 C11.3410011,38.9341928 10.5747449,38.495221 9.48233042,38.1123967 L7.74542913,37.5866514 L7.65794957,37.6172774 L6.06603755,38.2002448 L5.26981154,37.4405066 L9.07274247,55.4705882 C6.97890297,52.9474407 5.26981154,50.1943299 3.97408804,47.1720332 C2.23529675,43.0678887 1.35294118,38.7899285 1.35294118,34.3314364 C1.35294118,29.8479601 2.23529675,25.5955215 3.97408804,21.4919143 C5.65455961,17.5631972 8.0111078,14.0769445 11.0745124,11.026977 C14.1406171,7.97700952 17.6454695,5.63305055 21.5939297,3.95936982 C25.717349,2.23195937 29.9908876,1.35294118 34.497975,1.35294118 C38.9761726,1.35294118 43.277791,2.23195937 47.3742105,3.95936982 C51.3485905,5.63305055 54.8572229,7.97700952 57.9225176,11.026977 C60.9859222,14.0769445 63.3432804,17.5631972 65.019972,21.4919143 C66.7606533,25.5955215 67.6470588,29.8479601 67.6470588,34.3314364 C67.6470588,37.7916303 67.1146215,41.1615583 66.0540668,44.3880279 L66.0537968,44.3880279 Z M36.2947765,30.0960731 C35.6780671,30.3041727 35.2302735,30.4551685 34.9516521,30.4845441 C34.6163836,30.5449424 34.1957601,30.5449424 33.6923447,30.4551685 C33.2453201,30.3936721 32.9628539,30.3041727 32.8254656,30.2454216 C32.6570624,30.1567459 32.5450499,30.0065737 32.4896845,29.7649804 C32.4048421,30.1841997 32.6014406,30.5155669 33.104856,30.7555129 C33.4408934,30.9358843 33.8597227,31.0539356 34.3616001,31.1146084 C34.8668097,31.1437094 35.5099202,30.9652598 36.2663248,30.5155669 C37.0211915,30.066972 37.3290336,29.8262024 37.1613993,29.7647059 C37.1613993,29.7647059 36.8527883,29.8553034 36.2945202,30.0963476 L36.2947765,30.0960731 Z M32.9728371,29.7647059 C33.2443165,29.6794365 33.5473762,29.6794365 33.9105492,29.6794365 L35.7241981,29.6794365 C36.3580195,29.6794365 36.6009659,29.5672943 36.5114885,29.4525682 C36.2377929,29.1424976 35.3009118,28.8339774 33.6664948,28.4117647 L33.0653617,28.6916034 L32.5780838,28.4117647 C32.2789024,28.4660271 32.0065919,28.7192513 31.7941176,29.2267335 L32.4589653,29.4251786 L32.9728371,29.7647059 L32.9728371,29.7647059 Z M50.7352941,23.6764706 C50.4269179,23.0595607 50.2582224,22.6330712 50.2289511,22.3235294 C50.0348358,22.8456638 50.0063347,23.1760736 50.1460156,23.2951951 C50.3154813,23.4386625 50.5116507,23.556697 50.7352941,23.6764706 L50.7352941,23.6764706 Z M34.5,26.105385 L29.7647059,25.0294118 C30.2933234,25.6814853 30.731174,26.1056446 31.1356292,26.2754122 C31.5706255,26.4716572 32.6638248,26.3878118 34.5,26.1056446 L34.5,26.105385 Z" id="Shape"></path>
            </g>
        </g>
    </g>
</svg>