<?xml version="1.0" encoding="UTF-8"?>
<svg width="159px" height="39px" viewBox="0 0 159 39" version="1.1" xmlns="http://www.w3.org/2000/svg" xmlns:xlink="http://www.w3.org/1999/xlink">
    <!-- Generator: Sketch 60 (88103) - https://sketch.com -->
    <title>Group 2</title>
    <desc>Created with Sketch.</desc>
    <g id="Symbols" stroke="none" stroke-width="1" fill="none" fill-rule="evenodd">
        <g id="Navbar" transform="translate(-135.000000, -25.000000)" fill="#2A2A2A">
            <g id="Group-8">
                <g id="Group-2" transform="translate(135.000000, 25.000000)">
                    <path d="M46.7463724,28.200211 L46.7463724,21.086611 C46.7463724,19.838611 47.5450924,18.915091 48.7930924,18.915091 C50.1658924,18.915091 50.8148524,19.838611 50.8148524,21.061651 L50.8148524,28.200211 L54.6087724,28.200211 L54.6087724,20.412691 C54.6087724,17.692051 53.2110124,15.470611 50.0910124,15.470611 C48.8180524,15.470611 47.2954924,16.044691 46.6215724,17.217811 L46.6215724,15.795091 L42.9524524,15.795091 L42.9524524,28.200211 L46.7463724,28.200211 Z M62.0897324,28.574611 C65.2346924,28.574611 67.2065324,26.777491 67.8055724,24.630931 L64.6356524,23.732371 C64.2862124,24.705811 63.5124524,25.354771 62.1396524,25.354771 C60.6670124,25.354771 59.3940524,24.356371 59.3191724,22.958611 L67.9553324,22.958611 C67.9802924,22.883731 68.0302124,22.309651 68.0302124,21.785491 C68.0302124,17.791891 65.6590124,15.420691 61.8151724,15.420691 C58.5953324,15.420691 55.6250924,17.966611 55.6250924,21.960211 C55.6250924,26.128531 58.6702124,28.574611 62.0897324,28.574611 Z M64.3610924,20.512531 L59.3940524,20.512531 C59.4689324,19.589011 60.2676524,18.415891 61.8650924,18.415891 C63.6622124,18.415891 64.3111724,19.564051 64.3610924,20.512531 Z M72.9902123,28.200211 L72.9902123,22.783891 C72.9902123,20.312851 74.3630123,19.414291 75.8855723,19.414291 C76.2599723,19.414291 76.6593323,19.439251 77.0836523,19.539091 L77.0836523,15.795091 C76.8340523,15.720211 76.4596523,15.670291 76.0852523,15.670291 C75.0868523,15.670291 73.5143723,16.069651 72.8654123,17.467411 L72.8654123,15.795091 L69.1962923,15.795091 L69.1962923,28.200211 L72.9902123,28.200211 Z M83.1918123,28.474771 C84.6894123,28.474771 85.9374123,27.850771 86.5114923,27.002131 C86.5114923,27.501331 86.5863723,28.050451 86.6113323,28.200211 L90.2554923,28.200211 C90.2305323,27.925651 90.1556523,27.101971 90.1556523,25.978771 L90.1556523,10.129171 L86.4116523,10.129171 L86.4116523,16.768531 C86.1121323,16.294291 85.1886123,15.495571 83.0670123,15.495571 C79.5476523,15.495571 77.0516523,18.266131 77.0516523,21.960211 C77.0516523,25.779091 79.6974123,28.474771 83.1918123,28.474771 Z M83.6660523,25.080211 C82.1934123,25.080211 80.8705323,24.031891 80.8705323,21.985171 C80.8705323,19.913491 82.1934123,18.915091 83.6660523,18.915091 C85.1386923,18.915091 86.4615723,19.913491 86.4615723,21.985171 C86.4615723,24.031891 85.1386923,25.080211 83.6660523,25.080211 Z M98.0609323,28.574611 C101.380612,28.574611 103.427332,26.428051 103.976452,24.256531 L100.631812,23.233171 C100.357252,24.156691 99.5335723,25.080211 98.0609323,25.080211 C96.4884523,25.080211 95.1655723,23.981971 95.1655723,22.010131 C95.1655723,20.013331 96.4385323,18.915091 98.0110123,18.915091 C99.4836523,18.915091 100.232452,19.813651 100.507012,20.762131 L103.901572,19.738771 C103.352452,17.517331 101.355652,15.420691 97.9361323,15.420691 C94.2919723,15.420691 91.3966123,18.141331 91.3966123,22.010131 C91.3966123,25.853971 94.3668523,28.574611 98.0609323,28.574611 Z M108.811652,28.200211 L108.811652,20.911891 C108.886532,19.763731 109.660292,18.915091 110.858372,18.915091 C112.231172,18.915091 112.880132,19.838611 112.880132,21.061651 L112.880132,28.200211 L116.674052,28.200211 L116.674052,20.412691 C116.674052,17.692051 115.226372,15.470611 111.981572,15.470611 C110.883332,15.470611 109.585412,15.820051 108.811652,16.593811 L108.811652,10.129171 L105.017732,10.129171 L105.017732,28.200211 L108.811652,28.200211 Z M120.460932,14.222611 C121.708932,14.222611 122.707332,13.224211 122.707332,12.001171 C122.707332,10.778131 121.708932,9.77973099 120.460932,9.77973099 C119.262852,9.77973099 118.264452,10.778131 118.264452,12.001171 C118.264452,13.224211 119.262852,14.222611 120.460932,14.222611 Z M122.382852,28.200211 L122.382852,15.795091 L118.588932,15.795091 L118.588932,28.200211 L122.382852,28.200211 Z M128.216452,28.200211 L128.216452,21.061651 C128.216452,19.938451 128.940292,18.915091 130.263172,18.915091 C131.635972,18.915091 132.259972,19.838611 132.259972,21.011731 L132.259972,28.200211 L136.003972,28.200211 L136.003972,21.036691 C136.003972,19.938451 136.727812,18.915091 138.075652,18.915091 C139.423492,18.915091 140.047492,19.838611 140.047492,21.011731 L140.047492,28.200211 L143.716612,28.200211 L143.716612,20.163091 C143.716612,16.793491 141.470212,15.420691 139.123972,15.420691 C137.451652,15.420691 136.253572,15.969811 135.280132,17.367571 C134.656132,16.144531 133.383172,15.420691 131.611012,15.420691 C130.263172,15.420691 128.665732,16.119571 128.041732,17.217811 L128.041732,15.795091 L124.422532,15.795091 L124.422532,28.200211 L128.216452,28.200211 Z M149.425412,32.942611 L149.425412,27.226771 C149.999492,27.925651 151.197572,28.474771 152.795012,28.474771 C156.264452,28.474771 158.710532,25.754131 158.710532,21.960211 C158.710532,18.241171 156.539012,15.495571 152.944772,15.495571 C151.172612,15.495571 149.824772,16.269331 149.300612,17.068051 L149.300612,15.795091 L145.631492,15.795091 L145.631492,32.942611 L149.425412,32.942611 Z M152.171012,25.080211 C150.698372,25.080211 149.375492,24.031891 149.375492,21.985171 C149.375492,19.913491 150.698372,18.915091 152.171012,18.915091 C153.668612,18.915091 154.991492,19.913491 154.991492,21.985171 C154.991492,24.056851 153.668612,25.080211 152.171012,25.080211 Z" id="nerdchimp" fill-rule="nonzero"></path>
                    <path d="M29.8594924,20.381299 C29.8284524,21.643059 29.6799724,22.902579 29.5516524,24.160819 C29.4889324,24.774579 29.0649324,25.051699 28.4943724,25.110899 C27.2950124,25.235379 26.1746924,24.935859 25.1420524,24.354739 C24.9193324,24.228979 24.7529324,23.873459 24.7020524,23.597939 C24.5708524,22.887859 24.5193324,22.163059 24.4671724,21.715059 C24.5215724,19.052979 24.4226924,19.102899 26.7743724,19.1016186 C27.5871724,19.101299 28.4204524,19.275059 29.2028524,19.508339 C29.4943724,19.595379 29.8668524,20.084019 29.8594924,20.381299 M29.0002924,32.989299 C28.3526124,34.395059 27.2994924,35.388339 25.8447724,35.946739 C23.2783724,36.931059 20.6329324,37.112179 17.9599724,36.584179 C14.6175724,35.924019 12.4706924,33.663539 12.0063724,30.237939 C11.8182124,28.849139 11.9420524,27.418099 11.9231724,25.941299 C14.2300524,26.603059 16.4194924,26.225779 18.5916524,25.501299 C18.7922924,25.434099 19.1145324,25.573619 19.3193324,25.708979 C19.7743724,26.010099 20.1791724,26.247859 20.7295724,25.876659 C21.4226924,25.409779 21.6882924,26.239859 22.1753324,26.428659 C22.0290924,25.275699 21.5244524,24.766579 20.2918124,24.537459 C20.3606124,24.340019 20.4274924,24.145779 20.4962924,23.952179 C20.9526124,22.665779 21.7020524,22.217139 23.0761324,22.482739 C23.2726124,22.520819 23.5014124,22.810099 23.5663724,23.027699 C23.7362924,23.595059 23.8230124,24.187699 23.9094124,24.605939 C23.5014124,25.225139 23.1391724,25.774899 22.7087724,26.428019 C24.0562924,25.949939 25.1388524,25.347699 26.4722924,25.673779 C27.2172524,25.855859 28.0217324,25.781939 28.7913324,25.884339 C29.0076524,25.913139 29.3196524,26.120179 29.3775724,26.309299 C30.0668524,28.575859 30.0009324,30.817139 29.0002924,32.989299 M10.9599724,20.700659 C10.8796524,20.150899 11.1356524,19.720499 11.7414124,19.526259 C14.0169324,18.796019 16.3327724,18.542899 18.7122924,18.790259 C19.5001324,18.872179 19.8828524,19.216499 19.8306924,20.026419 C19.8057324,20.412979 19.8354924,20.803059 19.8402924,21.191859 C19.8098924,24.366259 19.7881324,24.320819 16.8934124,25.007859 C15.5983724,25.314739 14.1858924,25.179699 12.8287724,25.151539 C12.1922924,25.138099 11.7372524,24.699059 11.6009324,24.037939 C11.3724524,22.928179 11.1241324,21.820339 10.9599724,20.700659 M11.0729324,15.039539 C12.6706924,13.137459 14.6460524,11.929459 17.2415724,12.309619 C19.0409324,12.573299 20.2297324,13.766899 21.1481324,15.256819 C21.7670124,16.261299 21.8095724,16.264179 22.4194924,15.270899 C23.5484524,13.432819 25.3353324,12.818419 27.1372524,13.630579 C27.9369324,13.991219 28.4559724,14.569139 28.5202924,15.450739 C28.5794924,16.262259 28.5516524,17.080499 28.5606124,17.799859 C27.1330924,17.818099 25.8402924,17.754739 24.5650924,17.876019 C23.5382124,17.974259 23.2623724,18.419059 23.2460524,19.455859 C23.2422124,19.715379 23.2505324,19.974899 23.2534124,20.234739 C23.2562924,20.489139 23.2598124,20.743539 23.2633324,21.014579 C22.5298924,21.024179 21.8428524,21.033139 21.0761324,21.042739 C21.0684524,20.461299 21.0777324,19.816499 21.0479724,19.173299 C21.0006124,18.147059 20.6943724,17.623539 19.6502124,17.531699 C17.9577324,17.382259 16.2338924,17.328179 14.5449324,17.476659 C13.0361324,17.609459 11.5561324,18.070579 9.97629238,18.404979 C9.90333238,17.171379 10.2601324,16.006899 11.0729324,15.039539 M35.8684524,18.720499 C35.7807724,17.423539 35.5129324,16.081459 35.0246124,14.882419 C34.2326124,12.938099 32.8470124,12.612659 31.0777324,13.735539 C30.6879724,13.982899 30.3254124,14.272179 30.0169324,14.494579 C29.5599724,13.521139 29.2649324,12.451379 28.6274924,11.655859 C27.9903724,10.860339 27.0111724,10.338739 26.1666924,9.68561899 C26.4758124,9.34417899 26.9122924,8.93361899 27.2633324,8.45969899 C28.1020524,7.32785899 28.7119724,6.10353899 28.3497324,4.63441899 C28.2857324,4.37489899 28.0671724,4.06833899 27.8390124,3.96721899 C27.7074924,3.90865899 27.3622124,4.17649899 27.2002924,4.37041899 C26.5154924,5.19089899 25.6764524,5.69009899 24.5375724,5.82929899 C26.3017324,3.59857899 24.8658924,0.807858995 23.1193324,0.140338995 C22.3782124,-0.142861005 22.0863724,-0.0222210054 21.8569324,0.730418995 C21.2921324,2.58033899 19.9170924,3.66225899 18.2777324,4.58321899 C18.2015724,4.29649899 18.1574124,4.07281899 18.0818924,3.86033899 C17.9961324,3.61777899 17.9161324,3.36209899 17.7737324,3.15345899 C17.3788524,2.57425899 17.0137324,2.59729899 16.6722924,3.18193899 C15.2134124,5.67793899 13.1522924,7.58737899 10.7705324,9.16721899 C9.11773238,10.263219 7.62237238,11.509939 6.92477238,13.423539 C6.60573238,14.298099 6.54173238,15.265459 6.35933238,16.206579 C6.35741238,16.206259 6.27997238,16.199539 6.21501238,16.167539 C3.54941238,14.852979 1.59069238,15.635699 0.599332378,18.444979 C-0.138267622,20.534579 -0.151387622,22.668019 0.322212378,24.815219 C0.623652378,26.181299 1.16285238,27.436339 2.14077238,28.462259 C2.82685238,29.182579 3.61245238,29.231859 4.34269238,28.606579 C4.21053238,28.455219 4.05501238,28.317619 3.94845238,28.148979 C3.30205238,27.128179 2.52669238,26.159539 2.06269238,25.060339 C1.44157238,23.589939 1.53949238,22.062259 2.44765238,20.664499 C3.33501238,19.299059 4.28509238,19.159859 5.42173238,20.332659 C6.78877238,21.742579 7.60925238,23.465459 8.07293238,25.368179 C8.24125238,26.057779 7.92733238,26.291059 7.30813238,26.249139 C6.09021238,26.167219 5.11229238,25.677619 4.52029238,24.554099 C4.27453238,24.087859 4.01245238,23.630259 3.71261238,23.087539 C3.17757238,23.596339 3.29853238,24.093619 3.41789238,24.546419 C3.89277238,26.346419 4.96413238,27.802419 6.73693238,28.270899 C8.24701238,28.669619 8.72669238,29.472179 9.06909238,30.853299 C9.98237238,34.533939 12.3644524,36.891059 16.0354924,37.894899 C18.8038124,38.652019 21.5782124,38.614899 24.3337324,37.822579 C28.8140524,36.534579 31.1942124,33.238259 30.9298924,28.606899 C30.8668524,27.506419 30.5782124,26.419379 30.3823724,25.260979 C31.5785324,25.478899 32.1916524,24.672499 32.6146924,23.760499 C32.9903724,22.950899 33.2354924,22.064819 33.4150124,21.187379 C33.4905324,20.819059 33.3142124,20.075699 33.1391724,20.038579 C32.5577324,19.915699 32.5538924,20.530099 32.4111724,20.925939 C32.3228524,21.169459 32.2889324,21.454579 32.1375724,21.648819 C31.8412524,22.029299 31.4796524,22.358899 31.1452524,22.709619 C31.0134124,21.847539 31.0540524,21.128819 31.0959724,20.410419 C31.1407724,19.642739 30.8514924,19.058419 30.1874924,18.645299 C29.6700524,18.323379 29.6012524,17.797939 29.9718124,17.301299 C31.1074924,15.780339 33.1858924,15.924019 34.0678124,17.595379 C34.2354924,17.913459 34.3766124,18.258419 34.4562924,18.607539 C34.9638124,20.834739 34.3586924,22.868019 33.3334124,24.821939 C33.2060524,25.065459 33.0706924,25.304819 32.8966124,25.623539 C33.7382124,25.788979 34.1058924,25.280819 34.4329324,24.815859 C35.7228524,22.983219 36.0127724,20.866419 35.8684524,18.720499 M22.5251244,31.794739 C21.4243244,31.697139 20.2649644,31.769139 19.2387244,31.435059 C17.5971244,30.901299 16.2976044,29.840499 15.6457644,27.968819 C14.9414444,27.919219 14.0848044,27.786739 13.1651244,28.550579 C13.5952044,28.754419 13.8537644,28.953459 14.1350444,28.993779 C14.6867244,29.072499 14.9379244,29.342259 15.1516844,29.863539 C15.3785644,30.418099 15.7558444,30.972019 16.2092844,31.361459 C17.8528044,32.772659 21.4409644,32.967219 23.3820844,31.787699 C23.0611244,31.791859 22.7910444,31.818419 22.5251244,31.794739" id="Fill-1"></path>
                </g>
            </g>
        </g>
    </g>
</svg>