<?xml version="1.0" encoding="UTF-8"?>
<svg width="23px" height="23px" viewBox="0 0 23 23" version="1.1" xmlns="http://www.w3.org/2000/svg" xmlns:xlink="http://www.w3.org/1999/xlink">
    <!-- Generator: Sketch 60 (88103) - https://sketch.com -->
    <title>Shape</title>
    <desc>Created with Sketch.</desc>
    <g id="Symbols" stroke="none" stroke-width="1" fill="none" fill-rule="evenodd">
        <g id="Profile-banner" transform="translate(-1137.000000, -59.000000)" fill="#AC66B4" fill-rule="nonzero">
            <path d="M1148.5,59 C1142.14474,59 1137,64.1447368 1137,70.5 C1137,76.8552632 1142.14474,82 1148.5,82 C1154.85526,82 1160,76.8552632 1160,70.5 C1160,64.1447368 1154.85526,59 1148.5,59 Z M1154.09138,71.0721242 C1153.84771,72.3435115 1152.75123,73.2758621 1151.49229,73.2758621 C1150.15214,73.2758621 1149.01504,72.2163727 1148.8526,70.8602264 L1147.18756,72.6401685 C1147.06572,72.7673072 1146.94389,72.8096868 1146.82206,72.8096868 C1146.70023,72.8096868 1146.49717,72.7249276 1146.41595,72.6401685 C1146.2129,72.4282706 1146.2129,72.089234 1146.41595,71.8349566 L1147.14695,71.0721242 L1141.13656,71.0721242 C1140.85229,71.0721242 1140.60862,70.8178468 1140.60862,70.5211898 C1140.60862,70.2245328 1140.85229,69.9702553 1141.13656,69.9702553 L1147.14695,69.9702553 L1146.41595,69.207423 C1146.2129,68.9955251 1146.2129,68.6564885 1146.41595,68.4022111 C1146.61901,68.1903132 1146.94389,68.1903132 1147.18756,68.4022111 L1148.8526,70.1397736 C1149.01504,68.7836273 1150.15214,67.7241379 1151.49229,67.7241379 C1152.79184,67.7241379 1153.84771,68.6988681 1154.09138,69.9278758 L1154.09138,71.0721242 Z" id="Shape" transform="translate(1148.500000, 70.500000) rotate(-270.000000) translate(-1148.500000, -70.500000) "></path>
        </g>
    </g>
</svg>