<?xml version="1.0" encoding="UTF-8"?>
<svg width="221px" height="221px" viewBox="0 0 221 221" version="1.1" xmlns="http://www.w3.org/2000/svg" xmlns:xlink="http://www.w3.org/1999/xlink">
    <!-- Generator: Sketch 60 (88103) - https://sketch.com -->
    <title>pic-3</title>
    <desc>Created with Sketch.</desc>
    <g id="Wireframes" stroke="none" stroke-width="1" fill="none" fill-rule="evenodd">
        <g id="Home-page" transform="translate(-1068.000000, -952.000000)">
            <g id="pic-3" transform="translate(1068.000000, 952.000000)">
                <rect id="Rectangle" fill="#FFFFFF" x="0" y="0" width="221" height="221"></rect>
                <circle id="Oval" fill="#F3F3F3" cx="110" cy="108" r="104"></circle>
                <g id="Group-17" transform="translate(9.000000, 2.000000)">
                    <g id="Group-211">
                        <path d="M101.587351,74.9330912 C101.451309,74.9330912 101.315903,74.9488474 101.188125,74.9828806 C100.955455,75.0433842 100.649043,75.1864499 100.506644,75.5248916 C100.331189,75.9433745 100.508552,76.5162675 100.91922,76.8584907 C101.293653,77.1698319 101.850535,77.3311747 102.493873,77.3103766 C102.921069,77.2977717 103.327924,77.2107979 103.709349,77.0639507 C103.46778,76.3379081 103.158189,75.6862344 102.606393,75.2614491 C102.331767,75.0496866 101.954155,74.9330912 101.587351,74.9330912 M101.746914,85 C100.854378,85 99.9942626,84.6010547 99.546723,83.8762726 C99.4551808,83.7281649 99.5022234,83.5340493 99.6522508,83.4426638 C99.8010069,83.3525387 99.9974411,83.3991768 100.089619,83.5472845 C100.658579,84.4699637 102.055869,84.5726937 102.925519,84.0476993 C103.800256,83.5201839 104.374937,82.4525483 104.461394,81.1914274 C104.540222,80.0405994 104.242074,78.880948 103.902605,77.6960868 C103.900062,77.6891541 103.898155,77.6815912 103.896248,77.6740282 C103.46333,77.8322198 103.001169,77.9261263 102.512944,77.940622 C101.718307,77.9633108 101.004405,77.7521786 100.510459,77.3406284 C99.8861919,76.8213063 99.6376295,75.9559794 99.9198845,75.2828774 C100.10869,74.8335125 100.501559,74.5101966 101.026019,74.3734334 C101.689064,74.1994857 102.462087,74.3526353 102.996083,74.762925 C103.6515,75.2683818 104.017033,76.0070293 104.285302,76.787273 C105.830076,75.8885432 106.831319,73.9858325 106.863104,72.2589603 C106.913326,69.5155023 105.203267,67.0846461 103.760206,65.5285703 C103.640693,65.4006305 103.649593,65.2008428 103.778642,65.0829869 C103.908326,64.9657612 104.109211,64.9733242 104.228088,65.1018942 C105.749977,66.7424228 107.552849,69.3188658 107.498814,72.2703047 C107.461307,74.2839385 106.30368,76.4387473 104.481736,77.4118461 C104.491908,77.4490306 104.502715,77.4868453 104.514158,77.5240298 C104.868884,78.7643526 105.181017,79.9819866 105.095832,81.2342841 C104.994754,82.6989743 104.306916,83.9525323 103.256088,84.5865591 C102.790749,84.8670182 102.26311,85 101.746914,85" id="Fill-1" fill="#FF41AA"></path>
                        <path d="M144.65765,154.33419 C144.418306,154.33419 144.176374,154.377469 143.953202,154.468619 C143.704802,154.56895 143.279804,154.816169 143.215764,155.338804 C143.177598,155.648976 143.289507,155.968984 143.530145,156.241122 C143.817358,156.566375 144.250118,156.759167 144.6473,156.758513 C145.415788,156.746708 146.06137,156.189317 146.418446,155.582089 C146.246377,155.221425 146.021911,154.92568 145.746989,154.697477 C145.459776,154.459439 145.062594,154.33419 144.65765,154.33419 M144.467468,164 C144.349737,164 144.236534,163.935736 144.179609,163.822291 C144.098102,163.660975 144.160202,163.463593 144.319334,163.380968 C145.866661,162.575047 146.811099,160.571064 146.84409,158.017559 C146.852499,157.384756 146.798162,156.827365 146.682371,156.344731 C146.153873,156.999829 145.415788,157.402462 144.65765,157.414265 C144.07999,157.414265 143.464164,157.148685 143.048223,156.679165 C142.680797,156.263417 142.51261,155.759143 142.573416,155.258147 C142.649747,154.631902 143.065042,154.122381 143.712564,153.859424 C144.534743,153.526301 145.516701,153.659419 146.155814,154.189268 C146.373811,154.370256 146.565286,154.581409 146.73024,154.823382 C147.18564,153.130226 146.27872,151.282968 145.652545,150.274418 C145.360157,149.803587 145.032838,149.335379 144.716515,148.882909 C143.944146,147.777308 143.145901,146.634985 142.733194,145.305116 C142.125131,143.345724 142.685972,140.768612 144.654415,140.021053 C144.821309,139.957445 145.008256,140.042693 145.071003,140.213188 C145.133103,140.382373 145.048363,140.57123 144.881469,140.634838 C143.319264,141.228951 142.828285,143.427038 143.350314,145.10839 C143.732617,146.339896 144.466821,147.390413 145.244366,148.503227 C145.565863,148.964222 145.898357,149.438988 146.199802,149.924246 C146.960528,151.149194 148.088679,153.509907 147.13389,155.610287 C147.383584,156.271942 147.502609,157.079175 147.490966,158.026083 C147.454094,160.826152 146.378986,163.045878 144.614956,163.964589 C144.567087,163.988852 144.516631,164 144.467468,164" id="Fill-3" fill="#FFAF00"></path>
                        <path d="M66.1528824,172.074545 C66.0964943,172.074545 66.041465,172.079589 65.9877945,172.088415 C65.7248767,172.135071 65.5183469,172.283865 65.374999,172.532905 C65.1215924,172.973612 65.1120812,173.647597 65.353259,174.173419 C65.8512403,175.259109 66.9830776,176.086302 68.2372022,176.281751 C68.7616791,176.363083 69.3058577,176.33282 69.8235408,176.207354 C69.3303152,174.897843 68.516425,173.688579 67.4518457,172.734029 C66.9592995,172.291431 66.5326525,172.074545 66.1528824,172.074545 M67.706611,186 C67.6182924,186 67.5292944,185.967845 67.4633951,185.904797 C67.3322759,185.779331 67.3356727,185.580099 67.4695094,185.459046 C69.2847971,183.821685 70.3670401,181.442246 70.3636433,179.09244 C70.3629639,178.325143 70.2454322,177.554064 70.0253149,176.808203 C69.4070845,176.963302 68.7548853,177.0005 68.1251055,176.903406 C66.6481461,176.673911 65.3145347,175.699186 64.7282348,174.420568 C64.4068908,173.719472 64.4265927,172.842472 64.7764704,172.235318 C65.0183276,171.816047 65.3933421,171.551245 65.8621102,171.469282 C66.5156682,171.352643 67.1889279,171.620598 67.9240107,172.280082 C69.0809849,173.317855 69.9499044,174.597103 70.4730225,175.991729 C70.9390732,175.793127 71.3623232,175.511933 71.7047278,175.160754 C72.9045025,173.926901 73.1551916,171.862072 72.373232,169.636471 C71.8399233,168.119532 71.0430174,166.906484 70.0049337,166.033267 C68.8289371,165.04404 67.2949103,164.528306 65.9035521,164.649359 C65.7119686,164.667643 65.5509569,164.538394 65.5332932,164.365011 C65.5156294,164.191629 65.6521836,164.037791 65.8390115,164.022029 C67.4436932,163.878279 69.1271823,164.443191 70.4614731,165.56608 C71.5878755,166.514324 72.4486425,167.817531 73.0193168,169.441022 C73.8773663,171.883509 73.5743654,174.179724 72.2088234,175.582547 C71.7862527,176.017579 71.2570203,176.361192 70.675476,176.596362 C70.9159744,177.404639 71.0416587,178.243811 71.0430174,179.091809 C71.0464143,181.645892 69.9172945,184.131251 67.9437126,185.910472 C67.8778133,185.970367 67.7922122,186 67.706611,186" id="Fill-5" fill="#FF0E41"></path>
                        <path d="M158.448396,55.877147 C158.223851,55.877147 157.999306,55.9174204 157.800006,55.9992063 C157.602034,56.0797531 157.34095,56.2383683 157.224692,56.5326739 C157.088503,56.8808839 157.190811,57.3468161 157.499062,57.7786708 C157.973397,58.4422524 158.807801,58.8679111 159.787695,58.9459796 C160.35238,58.9905901 160.919722,58.9168588 161.433917,58.7433734 C161.251889,58.3871088 161.034652,58.0165936 160.78154,57.6281102 C160.361016,56.9831163 159.828884,56.2835985 159.073535,55.9899125 C158.87955,55.914942 158.664305,55.877147 158.448396,55.877147 M160.883183,65 C160.777554,65 160.673918,64.9529111 160.609478,64.8661684 C160.505177,64.7249017 160.543044,64.532209 160.694512,64.4355529 C161.679721,63.8017116 162.261678,62.53279 162.177308,61.2031484 C162.139441,60.6002867 161.984651,59.9813156 161.702308,59.3164948 C161.09112,59.5290144 160.413499,59.618855 159.731227,59.5630919 C158.548711,59.4689141 157.533607,58.9441208 156.946335,58.1225436 C156.514518,57.5172035 156.388294,56.8604374 156.601546,56.3195347 C156.755007,55.9291926 157.085846,55.613821 157.534272,55.4310417 C158.085005,55.2061303 158.771927,55.2011736 159.329304,55.4180303 C160.260702,55.7804908 160.872554,56.5760453 161.348882,57.3065427 C161.61528,57.7142333 161.843147,58.1045754 162.035804,58.4812866 C162.297552,58.3387807 162.534056,58.1659149 162.736013,57.9676459 C164.075977,56.6485374 164.214158,54.3510952 163.056887,52.6236764 C162.033147,51.0932874 160.123184,49.9966119 157.819936,49.6149441 C157.638572,49.5852037 157.518992,49.4241102 157.550216,49.2555815 C157.582768,49.0876724 157.750845,48.9736677 157.936194,49.0052669 C160.424792,49.4172947 162.496853,50.6162026 163.620907,52.2952933 C164.932304,54.254439 164.758913,56.8759271 163.21832,58.3939243 C162.953251,58.6541524 162.644999,58.8759658 162.306853,59.0544079 C162.623741,59.7941992 162.797796,60.4869016 162.840314,61.1665925 C162.940628,62.7316786 162.261678,64.179662 161.07119,64.945476 C161.013393,64.9820319 160.948288,65 160.883183,65" id="Fill-7" fill="#FF0E41"></path>
                        <path d="M48.4833831,77.6332664 C47.9703274,77.6332664 47.510417,77.7963496 47.2957921,78.1755981 C46.9810089,78.7294415 47.3468932,79.4636359 47.848366,79.9458506 C48.9317107,80.9863856 50.7052618,81.3470874 52.2594186,80.9358618 C51.9112493,79.6491031 50.9737133,78.5024041 49.6968655,77.908909 C49.3207609,77.7336745 48.885379,77.6332664 48.4833831,77.6332664 M49.1095428,87 C48.9650968,87 48.8308711,86.9136618 48.7852207,86.7774393 C48.7279874,86.6092398 48.8274643,86.4288889 49.0066591,86.3758069 C50.8537959,85.8258007 52.2471543,84.174503 52.395007,82.3607616 C52.4161288,82.0966307 52.4113594,81.8331393 52.3820614,81.5722062 C50.6030595,82.0294788 48.621697,81.6041833 47.3612016,80.3928905 C46.6859848,79.7443948 46.2178982,78.7140925 46.694161,77.8743737 C47.278077,76.8466296 48.8329151,76.7922685 50.0000657,77.3358793 C51.4315797,78.0016426 52.4890332,79.2775291 52.9005679,80.7158593 C53.0497833,80.6519051 53.1955919,80.5796368 53.3366312,80.4996941 C55.0147934,79.548695 56.0007052,77.6019288 55.7908498,75.6564417 C55.566686,73.5811276 54.1971748,71.886341 52.7479457,70.0917859 C51.3416417,68.3509523 49.8876432,66.5512808 49.5776294,64.3672445 C49.2301415,61.9133215 50.5683107,59.3135828 52.8331143,58.0453708 C52.9959567,57.9545558 53.2044495,58.0044401 53.2998383,58.1560116 C53.3965899,58.3075831 53.3434446,58.5039225 53.181965,58.594098 C51.1447318,59.7356806 49.940107,62.0751256 50.2535275,64.282825 C50.539694,66.2993012 51.8758192,67.9537966 53.2909808,69.7055025 C54.7333963,71.491104 56.224869,73.3381016 56.4687919,75.591848 C56.7045386,77.7784424 55.5878078,79.9707927 53.6895699,81.0471421 C53.4797144,81.1660969 53.2623641,81.2697028 53.039563,81.3579596 C53.0906642,81.7052309 53.1029285,82.0576186 53.0743118,82.4093668 C52.9060187,84.4763669 51.3177944,86.3585393 49.2131078,86.9852905 C49.1790403,86.9955232 49.1436102,87 49.1095428,87" id="Fill-9" fill="#00D339"></path>
                        <path d="M183.358835,124 C183.265991,124 183.171874,123.995006 183.077121,123.984394 C182.902242,123.964419 182.777601,123.809608 182.797314,123.638568 C182.817664,123.466903 182.975373,123.342056 183.149616,123.363905 C184.419557,123.50623 185.515255,122.353893 185.744188,121.187822 C185.959766,120.088544 185.643076,118.836954 184.801112,117.468007 C184.470431,116.929916 184.085697,116.405559 183.713681,115.89868 C183.273622,115.299415 182.8183,114.678925 182.438017,114.018485 C181.831345,112.965401 181.202416,111.380468 181.653286,109.806772 C182.193186,107.923456 184.296188,106.673738 186.247204,107.075121 C186.418903,107.110702 186.528918,107.276124 186.493306,107.444668 C186.457059,107.613835 186.288539,107.720579 186.116203,107.686246 C184.510494,107.353529 182.710193,108.424092 182.265682,109.97594 C181.873952,111.343014 182.444376,112.761276 182.991271,113.711361 C183.35502,114.341838 183.799531,114.94797 184.229416,115.533503 C184.609063,116.050993 185.001428,116.585338 185.345463,117.145277 C186.270733,118.650932 186.614768,120.050466 186.368029,121.305802 C186.101577,122.662265 184.854529,124 183.358835,124" id="Fill-11" fill="#FF41AA"></path>
                        <path d="M25.0919445,125.477406 C25.2901376,125.721783 25.5228283,125.947028 25.7913697,126.146356 C26.3832431,126.584505 27.3180647,126.963412 28.1717152,126.711013 C28.5741891,126.593145 28.9326952,126.284589 29.1065369,125.906299 C29.2452043,125.607 29.2465572,125.305232 29.1105954,125.056536 C28.8697875,124.615918 28.2779142,124.412271 27.7990041,124.406717 C27.182103,124.385735 26.5712897,124.643071 26.1147017,124.858443 C25.6912586,125.05777 25.3537217,125.261417 25.0919445,125.477406 M26.1688158,133 C26.1444644,133 26.1201131,132.998149 26.0957617,132.993212 C25.9131265,132.956185 25.7974576,132.792033 25.8380432,132.625413 C26.0869682,131.596071 25.3997187,130.567962 24.7361441,129.573795 C24.0272489,128.512363 23.3102367,127.162739 23.9054921,125.922344 C23.9934276,125.73721 24.1063909,125.568739 24.2342355,125.416312 C23.0518417,123.557571 23.3711151,121.01507 24.6657957,119.344549 C26.1884322,117.380282 28.9137553,116.162103 32.1430162,116.001654 C32.3263278,115.98314 32.4893467,116.122608 32.4994931,116.29293 C32.5096395,116.463253 32.366237,116.608275 32.1802197,116.617531 C29.2025895,116.765638 26.5996996,117.917786 25.2184363,119.701239 C24.1212723,121.11566 23.8155274,123.314429 24.7314091,124.944839 C25.0885624,124.667756 25.4802134,124.462874 25.8042218,124.309831 C26.3311582,124.062369 27.0387005,123.770475 27.8091505,123.789605 C28.643861,123.800096 29.3919889,124.189494 29.7159973,124.781304 C29.940571,125.192918 29.9459824,125.677351 29.7302023,126.145739 C29.4819537,126.685094 28.9638108,127.126946 28.3787018,127.298503 C27.4364394,127.575587 26.3095126,127.324422 25.3652209,126.625234 C25.092621,126.423439 24.8524895,126.201279 24.6427972,125.961839 C24.5981531,126.029721 24.5589203,126.098838 24.525099,126.169189 C24.0549824,127.14978 24.6908235,128.318589 25.2969018,129.227595 C26.0125612,130.299518 26.8060097,131.486842 26.498912,132.758092 C26.4637378,132.901879 26.3237175,133 26.1688158,133" id="Fill-13" fill="#FFAF00"></path>
                        <path d="M20.2036082,180 C19.9664948,180.346956 19.8238832,180.511259 19.5,180.673895 C19.6108247,180.798999 19.6597938,180.893244 19.6503436,181 C20.0111684,180.849041 20.2147766,180.665555 20.5,180.318599 C20.4278351,180.18015 20.3290378,180.082569 20.2036082,180" id="Fill-20" fill="#FFFFFF"></path>
                        <path d="M117.32065,8.0890701 C117.077588,7.94296524 116.846149,7.98436162 116.5,8.1566436 C116.661704,8.84151017 116.693035,9.26704059 116.62431,9.94094928 C116.882532,9.83137063 117.084663,9.85754776 117.474775,10 C117.539456,9.31330713 117.476796,8.77698052 117.32065,8.0890701" id="Fill-22" fill="#FFFFFF"></path>
                        <path d="M38.9296687,43 C38.8086894,43.1001974 38.6829093,43.1623889 38.5,43.215696 C38.7650024,43.5143139 38.9272684,43.7280355 39.0664906,44 C39.2719635,43.9965449 39.3732597,43.9397828 39.5,43.8395854 C39.4078253,43.6357354 39.199952,43.3257651 38.9296687,43" id="Fill-27" fill="#FFFFFF"></path>
                        <path d="M183.497005,137 C183.512616,136.487251 183.478392,135.927431 183.12054,135.437097 C182.675627,135.325021 182.38142,135.226394 181.971332,135 C182.058393,135.372093 181.920896,135.601849 181.5,135.975063 C182.174274,136.157187 182.737471,136.513029 183.497005,137" id="Fill-29" fill="#FFFFFF"></path>
                        <path d="M29.5,16.2321552 C30.0064378,16.4123354 30.2244635,16.6334026 30.4845494,17 C30.9987124,16.3991684 31.4270386,15.7498267 31.5,15.4164934 C31.1515021,15.2072072 30.7995708,15.0977131 30.2888412,15 C30.2133047,15.3783784 29.9566524,15.7013167 29.5,16.2321552" id="Fill-31" fill="#FFFFFF"></path>
                        <path d="M39.541071,180 C39.0926934,180.113432 38.8621511,180.386898 38.5,180.84678 C39.5646698,181.573972 40.4714091,182.654649 41.4008396,184 C41.7112548,183.643878 41.9917177,183.497032 42.5,183.349308 C41.6041525,181.868543 40.9697073,181.116729 39.541071,180" id="Fill-33" fill="#FFFFFF"></path>
                        <path d="M141.045233,45.0012242 C140.812257,44.9889872 140.665856,45.0670711 140.5,45.299575 C140.544261,45.5897677 140.608949,45.7908048 140.746109,45.9458074 C141.000486,45.8683061 141.18677,45.9038518 141.5,46 C141.281128,45.6532838 141.155156,45.4306861 141.045233,45.0012242" id="Fill-35" fill="#FFFFFF"></path>
                        <path d="M79.5444887,30 C79.9800797,29.953388 80.2370518,29.7496763 80.5,29.2283125 C80.3605578,28.6568839 80.1998672,28.270177 79.9130146,28 C79.4555113,28.2356495 79.1009296,28.2218386 78.5,28.1234355 C78.9754316,28.7570134 79.2549801,29.1678895 79.5444887,30" id="Fill-37" fill="#FFFFFF"></path>
                        <path d="M32.5,78.7023712 C32.4973665,78.427637 32.4482071,78.263287 32.2673708,78 C31.9750481,78.210139 31.7626094,78.2812756 31.5045227,78.3000818 C31.4869658,78.5576451 31.520324,78.73426 31.6081086,79 C31.896042,78.8389207 32.129549,78.7702371 32.5,78.7023712" id="Fill-39" fill="#FFFFFF"></path>
                        <path d="M35.5,158.684266 C35.3918526,158.432418 35.3991271,158.257128 35.4466537,158 C35.043162,158.111404 34.6508244,158.274023 34.5,158.406019 C34.542677,158.618268 34.6236663,158.785639 34.7638215,159 C34.9325897,158.848469 35.14258,158.781943 35.5,158.684266" id="Fill-41" fill="#FFFFFF"></path>
                        <path d="M187.5,176.585067 C186.87174,176.184703 186.336687,175.949791 185.75621,176.009104 C185.530862,176.546045 185.471871,176.940166 185.511395,177.413892 C186.217524,177.417013 186.613947,177.55437 187.225099,178 C187.170237,177.368626 187.210352,176.987773 187.5,176.585067" id="Fill-43" fill="#FFFFFF"></path>
                        <path d="M8.48787725,144.125884 C8.23087725,143.996509 8.01287725,143.970366 7.67287725,144.031367 C7.53487725,144.239171 7.47687725,144.401391 7.53387725,144.572327 C7.87387725,144.655448 8.06287725,144.775438 8.35687725,145 C8.33387725,144.664833 8.33387725,144.456359 8.48787725,144.125884" id="Fill-45" fill="#FFFFFF"></path>
                        <path d="M192.5,125 C192.477026,124.718728 192.42725,124.415342 192.229419,124.169316 C192.01372,124.135453 191.869496,124.098825 191.662731,124 C191.725909,124.198341 191.675495,124.331721 191.5,124.56047 C191.827377,124.619903 192.11455,124.779544 192.5,125" id="Fill-47" fill="#FFFFFF"></path>
                        <path d="M170.5,8.465 C170.858631,8.594 171.03869,8.689 171.264881,8.984 C171.340774,8.813 171.406994,8.723 171.5,8.692 C171.270833,8.351 171.060268,8.197 170.688244,8.016 C170.59003,8.149 170.53497,8.295 170.5,8.465" id="Fill-49" fill="#FFFFFF"></path>
                        <path d="M177.542717,50.2217411 C177.46606,50.4666711 177.503132,50.6698042 177.570993,51 C178.105711,50.7751325 178.725255,50.7483824 179.443449,50.8068982 C179.398209,50.5377259 179.419572,50.3571631 179.5,50.072944 C178.742221,49.9508969 178.311179,49.9701235 177.542717,50.2217411" id="Fill-51" fill="#FFFFFF"></path>
                        <path d="M134.397,0 C134.053,0.114512472 133.697,0.257369615 133.511,0.496598639 C133.608,0.678004535 133.656,0.803854875 133.665,1 C133.876,0.882653061 134.081,0.876984127 134.489,0.936507937 C134.35,0.658730159 134.368,0.378684807 134.397,0" id="Fill-53" fill="#FFFFFF"></path>
                        <path d="M175.026715,154 C175.460758,153.146962 175.612084,152.627678 175.414545,151.596168 C174.006396,151.136375 173.196303,150.753214 171.928606,150 C171.856115,150.582808 171.694821,150.970003 171.5,151.263423 C172.979734,152.078145 173.795264,152.788001 175.026715,154" id="Fill-55" fill="#FFFFFF"></path>
                        <path d="M153.5,13.2316273 C153.117007,12.6646982 152.750494,12.2486877 152.235003,12 C151.842123,12.2316273 151.644364,12.4547244 151.5,12.7769029 C152.097891,13.1286089 152.383322,13.4120735 152.734674,14 C152.92584,13.5688976 153.102505,13.3451444 153.5,13.2316273" id="Fill-57" fill="#FFFFFF"></path>
                        <path d="M77.5,46.1367735 C77.6623296,46.5140281 77.8128872,46.7329659 78.0625774,47 C78.3116481,46.8256513 78.4287485,46.6803607 78.5,46.5235471 C78.302974,46.3912826 78.2311029,46.240982 78.1443618,46 C77.9169765,46.1367735 77.7583643,46.1608216 77.5,46.1367735" id="Fill-59" fill="#FFFFFF"></path>
                        <path d="M60.6607275,2 C60.5302947,2.29475767 60.4891463,2.4975272 60.5023449,2.88229476 C60.8323086,2.82591494 61.032616,2.87141444 61.2422401,3 C61.381213,2.73491592 61.4394419,2.52720079 61.5,2.19287834 C61.1972097,2.2007913 60.9829274,2.13946588 60.6607275,2" id="Fill-61" fill="#FFFFFF"></path>
                        <path d="M182.114536,94.2279996 C181.553636,93.8741355 181.139138,93.9238677 180.562794,94.4355361 C180.459016,95.4110535 180.47137,96.1359968 180.694989,96.8112078 C181.373876,96.9087595 181.804434,97.2731439 182.5,98 C182.217697,96.6074968 182.070677,95.7333568 182.114536,94.2279996" id="Fill-63" fill="#FFFFFF"></path>
                        <path d="M182.5,29.07058 C183.952235,29.2480783 184.683799,29.405311 185.664057,30 C185.911845,29.5925926 186.14511,29.3689727 186.5,29.2704403 C185.498865,28.5737247 184.622986,28.2928022 183.103585,28 C182.759587,28.3291405 182.587134,28.6771488 182.5,29.07058" id="Fill-65" fill="#FFFFFF"></path>
                        <path d="M16.5266851,139 C16.6950978,138.537183 16.9481123,138.182206 17.5,137.920692 C16.5757067,136.627499 15.8451275,135.939115 14.7168413,135 C13.9823088,135.490676 13.6834355,135.951696 13.5,136.305774 C14.875766,136.97978 15.5723463,137.735565 16.5266851,139" id="Fill-69" fill="#FFFFFF"></path>
                        <path d="M173.5,186 C172.899523,185.493662 172.508861,184.861282 171.987456,184 C171.689958,184.520826 171.419078,185.113365 171.52242,185.787758" id="Fill-73" fill="#FFFFFF"></path>
                        <path d="M131.5,24.5286704 C131.86677,24.7863894 132.11819,24.9010712 132.469841,25 C132.521357,24.6805293 132.502879,24.4706994 132.444643,24.2772527 C132.220662,24.273472 132.069474,24.1751733 131.846052,24 C131.784457,24.2709515 131.692064,24.3919345 131.5,24.5286704" id="Fill-77" fill="#FFFFFF"></path>
                        <path d="M19.354732,113 C20.7695553,112.132607 21.5640821,111.418283 22.5,110.300027 C21.6899658,109.493223 21.0587229,109.157321 20.4028506,109 C19.9741163,109.827 19.4131129,110.200106 18.5,110.692267 C19.1531357,111.445921 19.3246294,112.020994 19.354732,113" id="Fill-79" fill="#FFFFFF"></path>
                        <path d="M51.9135,20 C52.0565,19.9456286 52.2015,19.9242929 52.4135,19.9655877 C52.4105,19.5925583 52.3385,19.3558016 52.2045,19.0123667 C51.8915,18.9813956 51.7115,19.0144314 51.5865,19.0474673 C51.8475,19.3840197 51.8945,19.6269706 51.9135,20" id="Fill-81" fill="#FFFFFF"></path>
                        <path d="M205.793813,69 C205.957266,68.6500632 206.151799,68.4174463 206.5,68.3537295 C206.173669,66.9610619 205.866906,66.147914 205.375396,65 C204.891367,65.2063211 204.65482,65.5168142 204.5,65.7686473 C205.169353,66.7618205 205.447338,67.6225032 205.793813,69" id="Fill-83" fill="#FFFFFF"></path>
                        <path d="M1.03013699,23.9951845 C1.19726027,24.0206573 1.31324201,23.9431314 1.5,23.8085686 C1.24200913,23.3262467 1.08721461,22.7209909 0.962100457,22 C0.807762557,22.0996762 0.692237443,22.1151813 0.5,22.0941386 C0.594977169,22.8666288 0.704109589,23.2885913 1.03013699,23.9951845" id="Fill-85" fill="#FFFFFF"></path>
                        <path d="M182.5,176.418267 C182.113451,176.103788 181.810462,175.545407 181.476902,174 C181.068614,174.324857 180.772418,174.77945 180.5,175.554748 C180.851223,176.65179 181.119565,177.261028 181.726223,178 C181.872283,177.312922 182.069973,176.977686 182.5,176.418267" id="Fill-87" fill="#FFAF00"></path>
                        <path d="M191.5,173.03676 C191.831102,173.561099 192.00562,174.122601 191.895943,175 C193.73287,174.692991 194.867584,174.227631 196.499641,173.425369 C196.510678,172.161785 196.26511,171.471824 196.047135,171 C194.505441,172.2959 193.329339,172.674005 191.5,173.03676" id="Fill-89" fill="#FF0E41"></path>
                        <path d="M15.5,47.0363636 C15.8317919,47.5616162 16.0056204,48.1224242 15.8966327,49 C17.7328695,48.6929293 18.8668941,48.2274747 20.4996411,47.4250505 C20.5106778,46.1612121 20.2651105,45.4711111 20.0464452,45 C18.505441,46.2953535 17.3300287,46.6727273 15.5,47.0363636" id="Fill-91" fill="#FF0E41"></path>
                        <path d="M165.904449,157 C165.624368,157.238966 165.570779,157.504681 165.5,157.943379 C166.58999,158.044137 167.715369,158.436469 168.96815,159 C169.044995,158.649576 169.188574,158.449844 169.5,158.166295 C168.213852,157.501115 167.42821,157.229157 165.904449,157" id="Fill-93" fill="#FFAF00"></path>
                        <path d="M173.246747,185 C173.872372,184.638049 174.418919,184.492279 175.5,184.549487 C175.061562,183.938902 174.514014,183.594553 173.441942,183.003771 C172.593093,182.975167 172.166667,183.106635 171.5,183.489489 C172.410911,184.00106 172.997497,184.403167 173.246747,185" id="Fill-95" fill="#FFAF00"></path>
                        <path d="M201.5,128.4596 C200.812556,127.953953 200.488424,127.653345 200.193678,127 C199.920303,127.201564 199.719947,127.28497 199.5,127.254561 C199.769813,127.980886 200.12333,128.400521 200.805432,129 C201.101069,128.87576 201.314782,128.695048 201.5,128.4596" id="Fill-97" fill="#008DF0"></path>
                        <path d="M193.5,132.128262 C192.209009,131.498452 191.516216,131.02521 190.500901,130 C189.982883,130.480318 189.625225,130.979213 189.5,131.619637 C190.111712,132.372402 191.062162,133.119858 192.428829,134 C192.534234,132.976559 192.755856,132.471473 193.5,132.128262" id="Fill-99" fill="#00D339"></path>
                        <path d="M176.500246,78.4856247 C177.258254,78.9997032 178.124909,79.0776524 179.509537,78.9397918 C179.47669,77.2519652 179.71083,76.2566628 180.5,74.7659641 C179.481743,74.8245871 178.774269,74.6152192 177.482287,74 C176.697328,75.522265 176.491824,76.7958655 176.500246,78.4856247" id="Fill-101" fill="#FFAF00"></path>
                        <path d="M206.111071,128 C206.496577,127.074396 206.618573,126.517874 206.372141,125.446377 C204.961872,125.057005 204.146128,124.708213 202.857854,124 C202.816375,124.616425 202.676487,125.035749 202.5,125.357488 C203.998106,126.114976 204.837436,126.807729 206.111071,128" id="Fill-103" fill="#FFAF00"></path>
                        <path d="M188.5,46.7704156 C188.832574,47.4403134 189.389684,47.7463816 190.373739,48 C190.940612,46.4716505 191.445656,45.6390918 192.5,44.5124153 C191.792548,44.2880096 191.387732,43.9062541 190.731045,43 C189.669541,44.1565529 189.085096,45.2473775 188.5,46.7704156" id="Fill-105" fill="#FFAF00"></path>
                        <path d="M78.5,36 C77.6392,36.0253485 77.1728,36.127467 76.5,36.7039652 C76.8728,37.9590802 76.9984,38.7289517 77.08,40 C77.5536,39.813145 77.9264,39.7740359 78.2456,39.8001086 C78.1016,38.3436538 78.2184,37.433279 78.5,36" id="Fill-107" fill="#FF41AA"></path>
                        <path d="M44.520202,37 C43.4479409,38.7890005 42.9531469,40.0272092 42.5,41.7740061 C43.7270396,42.0966128 44.545066,42.0465408 45.3052836,41.7954655 C45.3649573,40.6695612 45.7764569,39.9292111 46.5,38.8469409 C45.4625486,38.4799848 45.0125097,37.9928559 44.520202,37" id="Fill-109" fill="#FFAF00"></path>
                        <path d="M15.1321306,77 C14.5433302,78.7460007 14.2809765,80.1974865 14.717663,81.6678794 C16.0576324,82.0671107 16.9865525,82.0874722 18.0462221,81.8300444 C17.6898655,80.0156872 17.7983961,78.9532519 18.5,77.2370663 C17.087392,77.586121 16.1977822,77.6101185 15.1321306,77" id="Fill-111" fill="#FF41AA"></path>
                        <path d="M186.525,60 C186.809677,59.8315622 187.094355,59.7401677 187.5,59.6782309 C187.003226,59.0316714 186.705645,58.5746989 186.472581,58.0097146 C186.029032,57.9696823 185.798387,58.0557896 185.5,58.223472 C185.65,58.6434336 186.022581,59.299057 186.525,60" id="Fill-113" fill="#00D339"></path>
                        <path d="M194.404938,93 C193.640941,93.6397746 192.673211,93.8717808 190.502051,93.3283239 C190.474959,94.5699085 190.713911,95.6554163 191.358161,96.9616814 C193.016197,97.0755754 194.009935,96.969415 195.5,96.1763756 C194.831367,95.2434295 194.633595,94.490464 194.404938,93" id="Fill-115" fill="#FF0E41"></path>
                        <path d="M21.6780618,112.358911 C21.3865581,112.845597 21.4679263,113.308014 21.8131489,114 C23.1837696,113.67598 24.0345814,113.61498 25.3815025,113.752066 C25.1634672,113.235208 25.2156061,112.830511 25.5,112.049977 C24.1277994,111.921419 23.0542124,112.046697 21.6780618,112.358911" id="Fill-117" fill="#FF41AA"></path>
                        <path d="M168.5,56.8561905 C169.865232,57.0811744 170.643932,57.088097 171.956685,56.5406362 C171.9235,54.800184 172.066274,53.7629506 172.5,52.087686 C171.671908,52.1897941 171.069168,52.1280677 170.578333,52 C170.160814,53.9325538 169.575825,55.0793947 168.5,56.8561905" id="Fill-119" fill="#FF0E41"></path>
                        <path d="M192.5,145.266377 C191.946985,144.063662 191.533843,143.484381 190.386229,143 C188.99937,144.551997 188.084518,145.356663 186.5,146.509292 C187.026553,147.027943 187.30144,147.526163 187.462376,148 C189.246715,146.610123 190.487219,146.034796 192.5,145.266377" id="Fill-121" fill="#FFAF00"></path>
                        <path d="M48.5,173.14081 C48.7004483,173.383178 48.8240474,173.634268 48.9309958,174 C49.5272174,173.470405 49.9550112,173.146417 50.5,172.868536 C50.4923151,172.456075 50.3796029,172.253583 50.1785142,172 C49.7712136,172.184424 49.1512968,172.600623 48.5,173.14081" id="Fill-123" fill="#FFAF00"></path>
                        <path d="M123.5,61.0059646 C122.474191,60.9748038 121.355325,61.0433575 120.373864,61.7600559 C120.150672,62.6489177 119.952926,63.2386358 119.5,64.0573858 C120.244457,63.8836644 120.703926,64.1586584 121.450563,65 C121.815522,63.6515164 122.525082,62.5242745 123.5,61.0059646" id="Fill-125" fill="#00D339"></path>
                        <path d="M29.9631295,180 C30.323741,179.493177 30.7661871,179.275411 31.5,179.014759 C30.2976619,178.50181 28.9991007,178.07296 28.3327338,178 C27.9136691,178.348092 27.6951439,178.700084 27.5,179.210805 C28.256295,179.287107 28.9019784,179.54386 29.9631295,180" id="Fill-127" fill="#FF0E41"></path>
                        <path d="M155.5,173.698469 C155.6419,174.258687 155.98417,174.546525 156.558186,175 C157.467342,173.668286 158.817884,172.535336 160.5,171.373675 C160.054335,170.985718 159.870365,170.635306 159.685682,170 C157.835282,171.118963 156.895465,171.912544 155.5,173.698469" id="Fill-129" fill="#008DF0"></path>
                        <path d="M193.255133,155 C193.521759,154.516866 193.858872,154.176609 194.5,154.018265 C193.744867,152.316983 193.08719,151.350714 192.048268,150 C191.16871,150.372662 190.761722,150.821181 190.5,151.17764 C191.853356,152.288997 192.462611,153.323759 193.255133,155" id="Fill-131" fill="#FF0E41"></path>
                        <path d="M51.5025328,94.9090909 C51.4775834,95.375 51.6340844,95.6679293 52.0998073,96 C52.6789367,95.9116162 53.0819079,95.782197 53.3918858,95.5075758 C53.2361408,94.9987374 53.3072089,94.6256313 53.5,94 C52.805952,94.4368687 52.3613984,94.6900253 51.5025328,94.9090909" id="Fill-133" fill="#00D339"></path>
                        <path d="M39.5,141.910834 C39.4529675,141.039845 39.24972,140.526384 38.7284434,140 C38.1573348,140.27913 37.7698768,140.600474 37.5,141.174241 C37.7362822,142.090028 37.7222844,142.797329 37.6243001,144 C38.2569989,143.048891 38.6674132,142.490631 39.5,141.910834" id="Fill-135" fill="#FF0E41"></path>
                        <path d="M77.2023873,178 C76.9270557,178.002848 76.7636605,178.05184 76.5,178.232424 C76.7100796,178.525233 76.7811671,178.737718 76.7997347,178.995208 C77.0580902,179.013437 77.2342175,178.979827 77.5,178.891528 C77.3387268,178.604416 77.2702918,178.370853 77.2023873,178" id="Fill-137" fill="#FF41AA"></path>
                        <path d="M163.998342,124 C164.26504,123.282818 164.387731,122.786441 164.5,122.087515 C164.191615,121.960595 163.986973,121.982328 163.796068,122.084907 C163.782804,122.53521 163.680009,122.831645 163.5,123.266301 C163.760066,123.411476 163.873757,123.604463 163.998342,124" id="Fill-139" fill="#FF0E41"></path>
                        <path d="M108.49406,43 C109.561519,41.5646725 110.052821,40.5722416 110.5,39.1742763 C109.267925,38.9213037 108.447391,38.9648928 107.686254,39.169606 C107.63025,40.0701884 107.221256,40.6633118 106.5,41.5319807 C107.542003,41.821537 107.995969,42.2083904 108.49406,43" id="Fill-141" fill="#FF0E41"></path>
                        <path d="M138.868493,174 C138.365753,174.216556 138.015753,174.200818 137.5,174.10639 C137.723973,174.91407 138.04863,175.698458 138.312329,176 C138.737671,175.915014 139.071918,175.753226 139.5,175.472458 C139.196575,175.135663 139.063699,174.71514 138.868493,174" id="Fill-143" fill="#008DF0"></path>
                        <path d="M151.671145,58 C150.871576,59.2569628 150.39892,60.3271418 150.518349,61.4884162 C151.592201,61.9385344 152.380636,62.055657 153.326962,61.9775753 C153.334046,60.5652145 153.607317,59.7721491 154.5,58.5503997 C153.236884,58.6591017 152.474763,58.5794889 151.671145,58" id="Fill-145" fill="#00D339"></path>
                        <path d="M176.009547,149 C175.893344,149.722054 175.802237,150.083082 175.5,150.550604 C175.686034,150.691088 175.786416,150.817221 175.824604,151 C176.175941,150.526435 176.327605,150.097432 176.5,149.347432 C176.3527,149.160876 176.192853,149.059668 176.009547,149" id="Fill-147" fill="#00D339"></path>
                        <path d="M180.5,97.6477396 C180.907329,97.5927667 181.278717,97.6528029 181.722692,98 C182.210359,96.6878843 182.359056,95.7909584 182.5,94.4585895 C181.807259,94.0556962 181.339323,94.00217 181.003171,94 C181.165257,95.4256781 180.953841,96.3218807 180.5,97.6477396" id="Fill-149" fill="#FF0E41"></path>
                        <path d="M112.5,55 C112.218708,55.0463384 111.914984,55.1456351 111.668686,55.5403393 C111.63459,55.9722797 111.598699,56.2610674 111.5,56.6723211 C111.697847,56.5473728 111.831539,56.6483244 112.06079,57 C112.11956,56.3438146 112.279722,55.7720314 112.5,55" id="Fill-151" fill="#008DF0"></path>
                        <path d="M126.25505,32.0787009 C125.439392,32.3239945 124.535981,32.1754884 122.751887,31 C122.448225,31.974525 122.411609,32.91728 122.683074,34.1733016 C124.113001,34.8330823 125.01073,35.0894585 126.5,34.9727223 C126.123737,34.0033692 126.119318,33.3391555 126.25505,32.0787009" id="Fill-153" fill="#00D339"></path>
                        <path d="M22.964118,71 C23.0969148,70.6407533 23.1955064,70.4616127 23.5,70.2351521 C23.324279,70.1588605 23.231053,70.0927088 23.1988598,70 C22.8467471,70.2283921 22.6877934,70.4394013 22.5,70.812168 C22.6374916,70.9097055 22.788397,70.9647513 22.964118,71" id="Fill-155" fill="#FFAF00"></path>
                        <path d="M56.7218062,68.9147025 C56.9669237,69.067181 57.1702845,68.994611 57.5,68.8584403 C57.2749474,67.7878291 57.2489173,66.5500624 57.3069429,65.1125243 C57.0379644,65.2030329 56.8573801,65.1606324 56.572675,65 C56.4506586,66.5150005 56.4707235,67.3785018 56.7218062,68.9147025" id="Fill-157" fill="#FF41AA"></path>
                        <path d="M15.5,99.0935634 C15.7288447,99.445919 16.0143488,99.810219 16.4933775,100 C16.8561442,99.9011281 17.1085357,99.8513603 17.5,99.8433975 C17.2652686,99.6264101 17.2542311,99.416722 17.3734364,99 C16.8178808,99.142004 16.2579102,99.1240876 15.5,99.0935634" id="Fill-159" fill="#00D339"></path>
                        <path d="M137.5,67.5916358 C136.647391,67.0484913 136.127188,66.8603383 135.095943,67.1065541 C134.636594,68.8668129 134.253803,69.8781348 133.5,71.4649401 C134.081711,71.5546068 134.469737,71.7567242 134.762228,72 C135.57754,70.1500746 136.286848,69.1314029 137.5,67.5916358" id="Fill-161" fill="#008DF0"></path>
                        <path d="M25.9637002,83 C24.8302108,83.7663032 23.9981903,84.4983964 23.5,85.5289716 C23.9632744,86.3149455 24.4095167,86.7109258 25.0541835,87 C25.7576112,85.8035065 26.3239302,85.2330554 27.5,84.5308959 C26.6381733,84.1485995 26.1910794,83.7936712 25.9637002,83" id="Fill-163" fill="#FFAF00"></path>
                        <path d="M171.901934,133 C173.035062,132.637307 173.648979,132.256297 174.5,131.286674 C173.247313,130.53198 172.67504,129.879255 172.259269,129 C171.167786,129.266829 170.484014,129.612426 169.5,130.260876 C170.544465,131.060754 171.132859,131.789192 171.901934,133" id="Fill-165" fill="#00D339"></path>
                        <path d="M51.7743823,144 C52.5286086,143.675915 52.9661899,143.375151 53.5,142.87495 C53.1521456,142.376357 52.8621586,142.14234 52.5481144,142 C52.2828349,142.394049 51.9824447,142.537998 51.5,142.710897 C51.7743823,143.166868 51.8224967,143.483715 51.7743823,144" id="Fill-167" fill="#FF0E41"></path>
                        <path d="M17.5,157.83961 C17.7952503,157.970642 17.9980745,158.011463 18.3825417,157.997352 C18.3260591,157.667757 18.3716303,157.467682 18.5,157.257527 C18.2349166,157.118432 18.0275995,157.059972 17.6931964,157 C17.7002567,157.302885 17.639923,157.517071 17.5,157.83961" id="Fill-169" fill="#FFAF00"></path>
                        <path d="M169.010112,99.3847505 C169.156264,100.851415 168.946259,101.735188 168.5,102.971213 C170.136757,103.073953 171.782028,102.899924 172.485117,102.477432 C172.546841,101.320035 172.415588,100.330377 172.109805,99 C171.318032,99.4958774 170.457439,99.483297 169.010112,99.3847505" id="Fill-171" fill="#00D339"></path>
                        <path d="M88.7279228,63.7712548 C88.3742324,64.8920595 88.4238732,65.7226416 88.935173,66.8739117 C89.9112344,67.0815573 90.6359895,67.0583074 91.3111038,66.6101458 C91.4085238,65.2520319 91.7727629,64.3909845 92.5,63 C91.1075767,63.564411 90.2332788,63.859444 88.7279228,63.7712548" id="Fill-173" fill="#FF41AA"></path>
                        <path d="M38.6410111,62 C38.9955792,60.1848962 39.3111539,59.2699838 40.5,58.0451936 C39.6847654,57.7367879 39.238608,57.4445753 39.0409204,57 C37.6471322,58.2520241 37.0858082,59.3465332 36.5,61.2448108 C37.1592609,61.6754011 37.853888,61.8918004 38.6410111,62" id="Fill-175" fill="#008DF0"></path>
                        <path d="M26.8503871,153 C26.4996634,153.527553 26.1038371,153.901135 25.5,154.293355 C26.660552,155.276337 27.3949849,156.006483 28.0923931,157 C28.815382,156.790113 29.1290811,156.461912 29.5,155.927877 C29.0200269,155.17423 28.0513295,154.090762 26.8503871,153" id="Fill-177" fill="#008DF0"></path>
                        <path d="M140.5,39.9549403 C140.750007,40.2404995 140.873249,40.5407166 140.76057,41 C142.240891,40.8859935 143.162042,40.6693811 144.493062,40.2899023 C144.53743,39.6237785 144.360665,39.2535288 144.200097,39 C142.928233,39.6427796 141.976095,39.8110749 140.5,39.9549403" id="Fill-179" fill="#FF41AA"></path>
                        <path d="M170.191072,146 C170.524853,145.494041 170.618041,145.194475 170.321535,144.634886 C168.911862,144.481582 168.090965,144.327194 166.785493,144 C166.775327,144.329361 166.658419,144.556338 166.5,144.733478 C168.014721,145.079632 168.875434,145.414951 170.191072,146" id="Fill-181" fill="#FF0E41"></path>
                        <path d="M180.5,118.17001 C180.384122,117.682012 180.227906,117.407103 179.787862,117 C179.332417,117.471555 178.968647,117.669517 178.5,117.789214 C178.570407,118.25485 178.70462,118.556725 178.973781,119 C179.440227,118.615916 179.842868,118.415982 180.5,118.17001" id="Fill-183" fill="#00D339"></path>
                        <path d="M182.509827,168 C181.476468,168.328519 180.970649,168.583809 180.5,169.327511 C181.714378,170.290225 182.332945,170.919046 183.20287,172 C183.665244,171.668122 184.096587,171.501512 184.5,171.410144 C183.443884,170.189452 183.035299,169.35304 182.509827,168" id="Fill-185" fill="#FF41AA"></path>
                        <path d="M197.430066,137 C197.911237,136.393499 198.388822,135.678772 198.5,134.714908 C198.187388,134.120029 198.002092,133.696568 197.82636,133 C197.568739,133.541129 197.232218,133.678409 196.5,133.697294 C196.96324,134.613946 197.166467,135.625749 197.430066,137" id="Fill-187" fill="#FF0E41"></path>
                        <path d="M169.5,85.1843164 C168.738615,84.3766756 168.242291,84.0348525 167.120968,84 C166.253439,85.7030831 165.63259,86.6474531 164.5,88.0864611 C165.082306,88.3438338 165.438093,88.6635389 165.687737,89 C166.941888,87.3042895 167.9037,86.44437 169.5,85.1843164" id="Fill-189" fill="#FFAF00"></path>
                        <path d="M158.5,71.0239721 C159.249028,71.6182024 160.101487,72.1616438 161.071573,71.9554408 C161.539378,71.1539917 161.886175,70.6491499 162.5,70.0488249 C161.889556,69.819259 161.642133,69.2839438 161.376458,68 C160.64771,69.20065 159.738465,69.9827993 158.5,71.0239721" id="Fill-191" fill="#008DF0"></path>
                        <path d="M21.756733,167 C20.6706674,168.153361 19.9388173,168.733894 18.5,169.484594 C18.8739754,170.163866 19.3174766,170.681373 19.9871194,171 C21.0021956,170.586835 22.1146077,169.820028 23.5,168.661765 C22.401493,168.251401 21.9104215,167.872549 21.756733,167" id="Fill-193" fill="#008DF0"></path>
                        <path d="M35.5572363,101 C36.072363,100.266482 36.3021259,99.7639125 36.5,99.0601706 C35.8614064,98.9570423 35.4411284,98.9948076 35.0551922,99.1102823 C35.0470155,99.5591084 34.8507768,99.8619571 34.5,100.307152 C35.0412919,100.431342 35.2833197,100.615811 35.5572363,101" id="Fill-195" fill="#FFAF00"></path>
                        <path d="M105.5,189 C104.631724,187.20064 103.918621,186.190288 102.8,185 C101.993103,186.030679 101.656552,186.833239 101.5,187.666667" id="Fill-197" fill="#FF41AA"></path>
                        <path d="M32.5,162.60549 C32.3919206,162.432157 32.348153,162.257255 32.4321154,162 C31.6853853,162.004706 31.2119798,162.09098 30.5250953,162.254118 C30.46257,162.631373 30.5286681,162.849412 30.5947663,163 C31.2682525,162.68549 31.7541631,162.627451 32.5,162.60549" id="Fill-199" fill="#FFAF00"></path>
                        <path d="M180.5,168.007178 C178.8517,167.968702 177.827081,168.08352 176.5,168.385222 C176.875147,169.192 177.294842,169.645164 177.815358,170 C178.561743,169.672036 179.227628,169.669593 180.260844,169.736163 C180.002931,169.023438 180.099844,168.60875 180.5,168.007178" id="Fill-201" fill="#00D339"></path>
                        <path d="M70.5,46.4115011 C70.1496063,46.0851382 69.9166667,45.6960418 69.8543307,45 C68.4612861,45.6512323 67.648294,46.2658701 66.5,47.2486931 C66.7066929,48.2173264 67.0170604,48.6893204 67.2690289,49 C68.2611549,47.6601942 69.1220472,47.1045556 70.5,46.4115011" id="Fill-203" fill="#00D339"></path>
                        <path d="M181.858632,35 C181.558694,35.2124999 181.464013,35.4112737 181.511699,35.7457831 C181.879366,35.9226968 182.177231,36.0131872 182.514488,35.9984444 C182.742552,35.6974876 183.0107,35.5459925 183.5,35.3202749 C182.855202,35.2663874 182.458509,35.2196171 181.858632,35" id="Fill-205" fill="#FF41AA"></path>
                        <path d="M11.5,105 C11.5342483,106.074234 11.6702342,107.239676 12.4267187,108.222701 C13.302065,108.404104 13.8863007,108.575374 14.7082599,109 C14.4937044,108.232835 14.7314279,107.736255 15.5,106.906258 C14.1703601,106.60527 13.0331151,105.929313 11.5,105" id="Fill-207" fill="#00D339"></path>
                        <path d="M177.570768,115.275918 C177.451572,115.910851 177.473176,116.311013 177.710822,117 C178.386512,116.649859 178.839456,116.58451 179.357957,116.65954 C179.511421,116.07382 179.52483,115.652683 179.471937,115 C178.828281,115.238806 178.335854,115.289633 177.570768,115.275918" id="Fill-209" fill="#008DF0"></path>
                    </g>
                    <g id="Group-2" transform="translate(58.000000, 63.000000)">
                        <circle id="Oval" stroke="#0E2259" stroke-width="7.4034324" fill="#F3F3F3" cx="43.186689" cy="44.186689" r="43.186689"></circle>
                        <path d="M48.8567101,1.3688766 C47.0011942,1.12554333 45.1086027,1 43.186689,1" id="Oval" stroke="#FFFFFF" stroke-width="7.4034324"></path>
                        <text id="99%" font-family="CircularStd-Medium, Circular Std" font-size="32.2" font-weight="400" letter-spacing="-1.65128209" fill="#0E2259">
                            <tspan x="13.5373229" y="55.878108">99%</tspan>
                        </text>
                    </g>
                </g>
            </g>
        </g>
    </g>
</svg>