<?xml version="1.0" encoding="UTF-8"?>
<svg width="268px" height="48px" viewBox="0 0 268 48" version="1.1" xmlns="http://www.w3.org/2000/svg" xmlns:xlink="http://www.w3.org/1999/xlink">
    <!-- Generator: Sketch 60 (88103) - https://sketch.com -->
    <title>udacity</title>
    <desc>Created with Sketch.</desc>
    <g id="Wireframes" stroke="none" stroke-width="1" fill="none" fill-rule="evenodd" fill-opacity="0.3">
        <g id="Home-page" transform="translate(-824.000000, -1556.000000)" fill="#2A2536" fill-rule="nonzero">
            <g id="udacity" transform="translate(824.000000, 1556.000000)">
                <path d="M87.8777404,27.2234483 C87.8777404,31.0924138 84.5480288,34.3751724 80.1480529,34.3751724 C75.7480769,34.3751724 72.4183654,31.2096552 72.4183654,27.2234483 L72.4183654,13.2717241 L70.04,13.2717241 L70.04,27.3406897 C70.04,32.382069 73.9643029,36.72 80.1480529,36.72 C86.3318029,36.72 90.2561058,32.2648276 90.2561058,27.3406897 L90.2561058,13.2717241 L87.8777404,13.2717241 L87.8777404,27.2234483 Z M113.207332,13.2717241 L105.715481,13.2717241 L105.715481,36.72 L113.207332,36.72 C120.104591,36.72 124.742404,32.2648276 124.742404,24.9958621 C124.742404,17.8441379 120.104591,13.2717241 113.207332,13.2717241 Z M112.969495,34.3751724 L108.093846,34.3751724 L108.093846,15.6165517 L112.969495,15.6165517 C118.558654,15.6165517 122.364038,19.4855172 122.364038,24.9958621 C122.364038,30.857931 118.677572,34.3751724 112.969495,34.3751724 Z M179.444808,34.3751724 C173.974567,34.3751724 170.050264,29.92 170.050264,24.5268966 C170.050264,19.1337931 173.974567,15.0303448 179.444808,15.0303448 C183.725865,15.0303448 186.460986,17.4924138 186.460986,17.4924138 L187.650168,15.8510345 C187.650168,15.8510345 184.915048,12.92 179.325889,12.92 C172.785385,12.92 167.671899,17.9613793 167.671899,24.5268966 C167.671899,31.0924138 172.547548,36.72 179.444808,36.72 C185.152885,36.72 188.24476,32.8510345 188.24476,32.8510345 L186.936659,31.3268966 C186.81774,31.3268966 184.08262,34.3751724 179.444808,34.3751724 Z M203.228462,36.72 L205.606827,36.72 L205.606827,13.2717241 L203.228462,13.2717241 L203.228462,36.72 Z M218.687837,15.6165517 L227.012115,15.6165517 L227.012115,36.72 L229.390481,36.72 L229.390481,15.6165517 L237.71476,15.6165517 L237.71476,13.2717241 L218.687837,13.2717241 L218.687837,15.6165517 Z M265.303798,13.2717241 L257.930865,23.8234483 L250.439014,13.2717241 L247.822812,13.2717241 L256.741683,26.2855172 L256.741683,36.72 L259.120048,36.72 L259.120048,26.2855172 L267.92,13.2717241 L265.303798,13.2717241 L265.303798,13.2717241 Z M144.839591,13.2717241 L135.445048,36.72 L137.942332,36.72 L140.439615,30.0372414 L150.904423,27.9268966 L154.234135,36.72 L156.731418,36.72 L147.336875,13.2717241 L144.839591,13.2717241 L144.839591,13.2717241 Z M141.50988,27.457931 L146.147692,16.4372414 L146.266611,16.4372414 L150.190913,25.8165517 L141.50988,27.457931 Z" id="wordmark"></path>
                <path d="M15.827,0 L0,9.163 L0,30.107 C0,39.746 7.735,47.6 17.374,47.6 C20.587,47.6 23.562,46.767 26.18,45.339 L39.032,37.961 C44.149,35.224 47.6,29.988 47.6,23.8 L47.6,1.904 L44.506,0.119 L30.94,7.378 L30.94,30.226 C30.94,31.178 30.821,32.13 30.702,33.082 C30.464,34.034 30.226,34.867 29.869,35.7 L29.512,36.414 C29.036,36.414 26.061,35.343 24.514,34.272 C23.8,33.796 23.205,33.32 22.61,32.725 C22.015,32.13 21.539,31.535 21.063,30.821 C20.587,30.107 18.921,27.013 18.921,23.919 L18.921,1.785 L15.827,0 Z M23.562,43.078 C22.729,43.435 21.539,43.911 20.587,44.149 C19.635,44.387 18.802,44.387 17.85,44.387 C16.898,44.387 15.946,44.268 14.994,44.03 C14.042,43.792 13.209,43.554 12.376,43.197 C11.543,42.84 10.71,42.364 9.996,41.888 C7.973,40.46 7.021,39.27 6.188,37.961 C5.712,37.247 5.236,36.414 4.879,35.581 C4.522,34.748 4.284,33.796 4.046,32.844 C3.57,32.011 3.57,31.059 3.57,30.107 L3.57,10.948 L15.47,3.689 L15.47,23.8 C15.47,31.416 21.063,37.842 28.203,39.389 C27.965,39.746 27.727,40.103 27.37,40.341 C26.061,41.65 24.99,42.483 23.562,43.078 L23.562,43.078 Z M43.792,26.418 C43.673,27.251 43.316,28.084 43.078,28.798 C42.721,29.512 42.364,30.226 41.888,30.94 C41.412,31.654 39.984,33.439 38.08,34.51 C36.176,35.581 34.391,35.938 33.32,36.176 C34.034,34.272 34.51,32.368 34.51,30.226 L34.51,9.163 L44.03,3.689 L44.03,23.8 C44.03,24.752 44.03,25.585 43.792,26.418 Z" id="mark"></path>
            </g>
        </g>
    </g>
</svg>