<?xml version="1.0" encoding="UTF-8"?>
<svg width="181px" height="51px" viewBox="0 0 181 51" version="1.1" xmlns="http://www.w3.org/2000/svg" xmlns:xlink="http://www.w3.org/1999/xlink">
    <!-- Generator: Sketch 60 (88103) - https://sketch.com -->
    <title>udemy</title>
    <desc>Created with Sketch.</desc>
    <g id="Wireframes" stroke="none" stroke-width="1" fill="none" fill-rule="evenodd" fill-opacity="0.296929633">
        <g id="Home-page" transform="translate(-167.000000, -1554.000000)" fill="#2A2536" fill-rule="nonzero">
            <g id="udemy" transform="translate(167.000000, 1554.000000)">
                <path d="M141.139053,26.9905647 L141.139053,38.7264688 L136,38.7264688 L136,21.5585176 L139.597337,21.5585176 L140.67488,22.9165294 C144.371683,20.0496157 148.681857,20.8040666 150.687745,23.4530279 L151.632668,22.7153425 C153.688289,21.1226126 155.975996,20.7202388 158.42948,21.3908619 C159.971195,21.8100013 161.148204,22.7656392 161.678687,24.2913067 C162.076549,25.4648972 162.424679,26.7055499 162.457834,27.929437 C162.5573,31.383146 162.507567,34.8368549 162.507567,38.2905638 C162.490989,38.4582196 162.474412,38.6091098 162.441256,38.76 L157.302203,38.76 L157.302203,35.7589617 L157.302203,30.1760244 C157.302203,29.8407128 157.302203,29.4886357 157.269048,29.1533242 C157.05354,26.5378941 155.594712,25.548725 153.108073,26.3534728 C152.660478,26.5211285 152.246038,26.7223155 151.831599,26.940268 L151.831599,38.7264688 L146.59308,38.7264688 L146.59308,37.5025817 L146.59308,29.991603 L146.59308,29.6562915 C146.52677,26.3870039 144.537459,25.2134135 141.636381,26.7055499 C141.487182,26.7558466 141.371139,26.8396745 141.139053,26.9905647 L141.139053,26.9905647 Z" id="Path"></path>
                <path d="M90.2787622,15.6626365 L95.655632,15.6626365 C95.6886189,15.9259958 95.7216059,16.1399753 95.7216059,16.3539547 C95.7051124,20.7816835 95.7051124,25.2258722 95.655632,29.6536009 C95.6391385,30.4765988 95.5401777,31.2831368 95.3587496,32.0896747 C94.5835567,35.6121057 92.4394062,37.7519003 88.8438306,38.4267586 C86.4192912,38.9040974 83.9122844,38.8711774 81.5207318,38.3115389 C78.2055452,37.5214609 76.1603555,35.0360072 75.7315254,31.3325166 C75.5830842,29.8840403 75.5006168,28.435564 75.5006168,26.9870877 C75.4676299,23.5963363 75.4841234,20.2055849 75.4841234,16.8148336 L75.4841234,15.6626365 L80.8939801,15.6626365 L80.8939801,16.9300533 C80.8939801,20.584164 80.8609932,24.2382747 80.9104736,27.8923854 C80.9269671,28.9293627 81.0754083,29.9663401 81.3393037,30.9703975 C81.6526796,32.2048944 82.5268332,33.1101921 83.8133236,33.2912516 C85.0173466,33.4723112 86.2543565,33.4723112 87.4583795,33.2912516 C88.9427914,33.0608122 89.7179843,31.9250751 90.0148667,30.5095187 C90.1798014,29.6700609 90.2622687,28.814143 90.2622687,27.9582252 C90.2952556,23.9090755 90.2787622,19.8434658 90.2787622,15.6626365 L90.2787622,15.6626365 Z M114.92,38.262159 L111.736761,38.262159 L110.796634,37.093502 C109.015339,38.3773787 107.01963,38.7888777 104.858986,38.640738 C101.411852,38.3938387 99.0038055,36.4844835 98.0801715,33.159572 C97.4864067,31.0691573 97.4864067,28.8635229 98.0966649,26.7731082 C99.0862729,23.3823568 101.939642,21.0944227 105.485738,20.962743 C106.887682,20.9133631 108.289627,21.0944227 109.774039,21.1931824 L109.774039,14.28 L114.92,14.28 L114.92,38.262159 Z M109.757545,33.3900114 L109.757545,25.9336504 C109.444169,25.7855107 109.16378,25.6209112 108.850405,25.5221514 C106.227944,24.6003937 103.852884,25.6373711 103.176652,28.040525 C103.011718,28.5672437 102.92925,29.1268822 102.92925,29.6865208 C102.962237,31.3325166 103.242626,32.9455925 104.891973,33.7850504 C106.541319,34.6080483 108.207159,34.3940688 109.757545,33.3900114 Z" id="Shape"></path>
                <path d="M133.269664,30.7322485 L122.579336,30.7322485 C122.281001,32.24232 123.242302,33.7523915 124.849995,34.2448061 C126.656577,34.802876 128.479734,34.6223239 130.269742,34.0806679 C131.015579,33.8508744 131.711693,33.5061842 132.507253,33.1779078 L131.827713,37.1336384 C130.717244,38.08564 129.391312,38.4795717 127.999084,38.6437099 C126.126205,38.8570896 124.253325,38.8078481 122.430169,38.2333644 C119.944046,37.4290872 118.253483,35.804119 117.491072,33.3256321 C116.811532,31.1425941 116.778383,28.8118316 117.424775,26.6287935 C118.336354,23.4445124 120.938495,21.3435434 124.286474,21.1301637 C125.214626,21.0480946 126.159353,21.0645084 127.087505,21.195819 C129.656499,21.6061645 131.446507,23.0669945 132.407808,25.4634123 C133.087348,27.1047943 133.33596,28.861073 133.269664,30.7322485 Z M122.446743,28.1881064 L128.976959,28.1881064 C128.827791,26.0543098 127.302969,25.0366529 125.82787,25.0366529 C123.938417,25.0530667 122.711929,26.1527927 122.446743,28.1881064 Z" id="Shape"></path>
                <path d="M168.223599,21.7763676 C168.864637,23.5931729 169.489239,25.3936105 170.130278,27.1940481 C170.754879,29.0108534 171.379481,30.8276586 172.102704,32.9063457 L175.784566,21.76 L180.88,21.76 L171.987645,44.2 L166.826464,44.2 L169.27556,37.9803063 L162.52,21.7763676 L168.223599,21.7763676 Z" id="Path"></path>
                <path d="M40.3150206,25.1545245 L39.5678689,26.692343 C37.2101905,31.9341544 34.6366682,37.0767517 31.2827876,41.7894213 C29.5062271,44.2863093 27.5304262,46.5847692 25.0233174,48.4036943 C22.7652591,50.0241912 20.2747537,51.0163322 17.4521809,51 C14.3805576,50.9832608 11.9066556,49.7265489 10.080285,47.2627322 C8.41994801,45.0138794 7.75581324,42.4177772 7.55657281,39.6728539 C7.2909189,36.0019323 7.92184693,32.4302249 8.7520154,28.8915888 C8.95125583,28.0648047 9.11728953,27.2380206 9.33313333,26.2624153 C8.58598171,26.692343 7.95505367,27.0726637 7.32412564,27.4033774 C6.26151,27.9821263 5.13248088,28.3293756 3.90383155,28.2963042 C1.49634299,28.1805545 -0.0643737297,26.4277721 0.00203974775,23.9639554 C1.77860027,22.4261369 3.57176416,21.0371396 5.16568762,19.4331784 C9.39954681,15.1835079 12.6372038,10.2228031 15.1111059,4.78256356 C15.4597766,3.97231511 15.8748609,3.17860234 16.3231518,2.41796094 C17.5019911,0.532893124 19.3947752,-0.31042669 21.3539727,0.102965376 C23.2301535,0.499821758 24.4089927,1.90535478 24.7908702,4.15420762 C25.2889713,7.04795208 24.69125,9.84248244 24.0271152,12.6204771 C22.6988457,18.0772524 21.3041626,23.5340276 20.0090998,29.0073386 C19.3781718,31.6861192 19.029501,34.4145068 19.2121381,37.1759658 C19.2619482,37.9862143 19.4279819,38.7964627 19.6936358,39.5571041 C20.2581504,41.0453155 21.5698165,41.4256362 22.7984659,40.4004239 C23.5622209,39.7389966 24.242959,39.0114266 24.8572837,38.2177138 C28.3273879,33.8357579 31.1831674,29.0569456 33.7400863,24.1127765 C35.9151277,19.8961775 38.0569623,15.6630427 40.2320037,11.4464437 C40.5972778,10.7188736 41.0289654,10.0243749 41.4440497,9.32987628 C43.0711799,6.66763138 47.0393852,6.89913093 48.6333086,9.52830447 C49.4966838,10.9503732 49.9117681,12.5377987 50.0279916,14.1748313 C50.1608186,15.8780066 50.1940253,17.5811819 50.2604388,19.2843572 C50.4098691,22.9883501 50.5426961,26.692343 50.7253331,30.3963359 C50.7751433,31.0908346 50.9245736,31.7853333 51.1902275,32.4467606 C51.6717252,33.6869368 52.5849105,34.1499359 53.86337,33.7696152 C54.5773148,33.571187 55.258053,33.257009 55.8557743,32.8270813 C57.549318,31.5538337 59.1598448,30.1979077 60.9198019,28.775839 C61.6503502,28.9908029 62.0820378,29.6356945 62.3310883,30.445943 C62.7959827,31.9837615 62.497122,33.4719729 61.9326075,34.8940416 C60.3552874,38.8956768 57.2338539,41.1445296 53.1660284,42.0374565 C51.6053117,42.3516345 49.9947849,42.4177772 48.4008614,42.2028133 C45.2960314,41.8224926 43.2206102,39.9539605 42.0085642,37.1098231 C40.8795351,34.4641139 40.6138812,31.6695835 40.4976576,28.8419818 C40.4478475,27.6348769 40.4976576,26.4277721 40.4976576,25.2041316 L40.3150206,25.1545245 Z" id="Path"></path>
            </g>
        </g>
    </g>
</svg>